<?xml version="1.0" encoding="UTF-8"?>
<svg width="1100px" height="150px" viewBox="0 0 1100 150" version="1.1" xmlns="http://www.w3.org/2000/svg" xmlns:xlink="http://www.w3.org/1999/xlink">
    <!-- Generator: Sketch 43.2 (39069) - http://www.bohemiancoding.com/sketch -->
    <title>cloud</title>
    <desc>Created with Sketch.</desc>
    <defs></defs>
    <g id="Page-1" stroke="none" stroke-width="1" fill="none" fill-rule="evenodd">
        <g id="cloud" fill="#FFFFFF">
            <path d="M977.16832,244 C968.731801,247.230217 959.572578,249 950,249 C940.427422,249 931.268199,247.230217 922.83168,244 L249,244 L249,242.245656 C231.835889,266.87981 203.300481,283 171,283 C136.038089,283 105.487265,264.113891 88.9930956,235.987238 C72.3544956,250.328827 50.6898783,259 27,259 C-25.4670512,259 -68,216.467051 -68,164 C-68,111.532949 -25.4670512,69 27,69 C61.9619109,69 92.5127345,87.8861095 109.006904,116.012762 C125.645504,101.671173 147.310122,93 171,93 C187.690081,93 203.374916,97.3039683 217.005162,104.862562 C222.770955,101.152403 229.634117,99 237,99 C243.533754,99 249.671956,100.693556 254.999583,103.665643 C269.208296,87.328129 290.148016,77 313.5,77 C339.053445,77 361.718364,89.3672455 375.835828,108.442805 C377.513543,108.151721 379.239053,108 381,108 C382.723828,108 384.413698,108.145393 386.058016,108.424584 C398.592532,77.1152838 429.213615,55 465,55 C494.35183,55 520.228855,69.8774063 535.501608,92.5027503 C537.284101,92.1725813 539.121896,92 541,92 C547.890479,92 554.238387,94.323022 559.303275,98.2286171 C568.45863,92.3859054 579.333905,89 591,89 C606.00661,89 619.704665,94.6025918 630.116588,103.830199 C643.098558,65.5490985 679.332061,38 722,38 C756.222183,38 786.305107,55.7222747 803.571781,82.4898336 C805.332324,82.1680832 807.146533,82 809,82 C819.477813,82 828.701045,87.3715032 834.066186,95.5110016 C839.423132,93.8782653 845.109001,93 851,93 C870.485393,93 887.726547,102.608733 898.243635,117.346375 C911.812601,104.721927 930.004524,97 950,97 C972.176208,97 992.134016,106.498101 1006.02729,121.648171 C1012.7074,115.063571 1021.87915,111 1032,111 C1037.06673,111 1041.8956,112.018428 1046.29306,113.861744 C1063.06118,86.9274263 1092.937,69 1127,69 C1179.46705,69 1222,111.532949 1222,164 C1222,216.467051 1179.46705,259 1127,259 C1105.61349,259 1085.87755,251.933048 1070,240.006958 L1070,244 L977.16832,244 Z" id="Combined-Shape"></path>
        </g>
    </g>
</svg>