<?xml version="1.0" encoding="UTF-8"?>
<svg width="16px" height="16px" viewBox="0 0 16 16" version="1.1" xmlns="http://www.w3.org/2000/svg" xmlns:xlink="http://www.w3.org/1999/xlink">
    <!-- Generator: Sketch 43.2 (39069) - http://www.bohemiancoding.com/sketch -->
    <title>facebook</title>
    <desc>Created with Sketch.</desc>
    <defs></defs>
    <g id="Page-1" stroke="none" stroke-width="1" fill="none" fill-rule="evenodd">
        <g id="facebook" fill="#00ABEF">
            <path d="M13,0 L3,0 C1,0 0,1 0,3 L0,13 C0,15 1,16 3,16 L8,16 L8,9 L6,9 L6,7 L8,7 L8,5 C8,3 10,3 10,3 L13,3 L13,5 L10,5 L10,7 L13,7 L12.5,9 L10,9 L10,16 L13,16 C15,16 16,15 16,13 L16,3 C16,1 15,0 13,0 L13,0 Z" id="Combined-Shape"></path>
        </g>
    </g>
</svg>