<?xml version="1.0" encoding="utf-8"?>
<!-- Generator: Adobe Illustrator 19.0.0, SVG Export Plug-In . SVG Version: 6.0 Build 0)  -->
<svg version="1.1" id="Layer_1" xmlns="http://www.w3.org/2000/svg" xmlns:xlink="http://www.w3.org/1999/xlink" x="0px" y="0px"
	 viewBox="-705 893.1 273 595" style="enable-background:new -705 893.1 273 595;" xml:space="preserve">
<style type="text/css">
	.st0{fill:#0BB5F8;}
	.st1{fill:#FFFFFF;}
</style>
<title>logo</title>
<desc>Created with Sketch.</desc>
<path id="Path" d="M-642.4,1070.3c6.3-4.4,6.4-13.9,0.2-19.6c-3.4-3.1-10.2-4.7-17.6-4c-8.7,0.9-17.5,4.8-25,11.9
	c-16.3,15.3-20.7,31.2-10.9,41.1c4.6,4.6,12.4,5.6,22,3.8c7.6-1.5,16.1-4.8,21.8-8.2c1-0.6,1.3-1.9,0.7-2.9c-0.6-1-1.9-1.3-2.9-0.7
	c-5.3,3.2-13.2,6.3-20.4,7.7c-8.4,1.6-14.9,0.8-18.3-2.6c-7.8-7.8-4-21.2,10.8-35.2c6.9-6.4,14.8-10,22.6-10.8
	c6.3-0.6,12,0.7,14.4,2.9c4.3,4,4.3,10.3,0.2,13.1c-0.9,0.7-1.2,1.9-0.5,2.9C-644.6,1070.7-643.3,1070.9-642.4,1070.3z"/>
<path id="Path-2" d="M-638,1091c-1.1,2.6-1,5.4,0.2,7.3c1.1,1.8,3.1,2.5,6.1,1.5c7.6-2.5,10.9-7.2,8.7-12.2c-1.7-3.7-8-3.5-13.2-0.4
	C-637,1088.8-637.6,1090.1-638,1091z M-613.2,1066c5.7-5.6,7.1-9.6,4.4-12.3c-1-0.9-2.6-0.5-5.4,1.8c-2.8,2.4-6.2,6.3-9.8,11.5
	c-2.6,3.8-5.5,8.3-7.9,12.6C-624.1,1074.9-617.6,1070.2-613.2,1066z M-627.4,1064.7c3.8-5.5,7.4-9.7,10.5-12.3c4.2-3.5,8-4.4,11-1.5
	c5,4.8,2.8,11.2-4.4,18.2c-3.9,3.8-9.3,7.8-15.8,11.9c-2.8,1.8-5.9,3.6-9.1,5.4c-0.2,0.1-0.4,0.2-0.6,0.2c-0.9,0.2-1.8-0.2-2.3-1
	c-0.3-0.6-0.3-1.3-0.1-1.8c0.2-0.4,0.5-0.7,0.9-1c1.8-1,3.6-2,5.3-3.1c-0.4,0.6-0.7,1.2-1.1,1.8c-1,1.8-2,3.5-2.8,5.1
	c-0.1,0.3-0.3,0.6-0.4,0.8c-0.8,0.5-1.6,1.1-2.3,1.7c-0.9,0.7-2.2,0.6-2.9-0.2c-0.7-0.9-0.6-2.2,0.2-2.9c0.6-0.5,1.2-1,1.9-1.4
	c0.4-0.3,0.8-0.5,1.2-0.8c1.6-1,3.4-1.7,5.1-2.2c2.4-0.7,4.7-0.9,6.8-0.5c3.1,0.5,5.6,2.1,6.9,5.1c3.4,7.6-1.6,14.6-11.2,17.8
	c-9.5,3.1-15-5.8-11.4-14.4c0.1-0.2,0.2-0.5,0.3-0.7c0.5-1.2,1.2-2.6,2.1-4.3C-636.4,1078.7-631.7,1070.8-627.4,1064.7z"/>
<path id="Path-3" d="M-594.7,1090.4c1.8-3.4-1.4-6.7-6.4-4.7c-6.7,2.7-10.3,9-7.2,12.7c1.2,1.5,3.1,1.2,6.4-1.2
	c2.1-1.5,4.4-3.8,7.1-6.7C-594.8,1090.6-594.8,1090.5-594.7,1090.4z M-591.1,1092.4c-0.5,1-1.8,1.4-2.8,0.8
	c-0.8-0.4-1.2-1.3-1.1-2.1c0-0.2,0.1-0.3,0.1-0.5c0.3-0.4,0.7-0.7,1-1.1c1-1.2,2.1-2.5,3.2-3.8c0.1-0.1,0.1-0.1,0.2-0.2l3.1,2.7
	c-1.3,1.4-2.4,2.7-3.3,4c-1.3,1.7-2.1,3.3-2.6,4.7c-0.3,0.9-0.5,1.6-0.5,2.2c0,0.1,0,0.2,0,0.3c0,0,0.1,0,0.1,0c0.4,0,0.9,0,1.5-0.2
	c1.6-0.4,3.6-1.4,5.8-2.8c1-0.6,2.2-0.4,2.9,0.6c0.6,1,0.4,2.2-0.6,2.9c-5.5,3.7-10.4,4.9-12.8,2.5c-0.7-0.7-1.1-1.7-1.2-2.8
	c-0.2-2.2,0.9-5.1,3-8.3c0.3-0.5,0.7-1.1,1.1-1.6c0.9-1.3,2-2.5,3.2-3.9c0.1-0.1,0.2-0.2,0.3-0.3c1.8-1.9,4.8,0.6,3.1,2.7
	c-1.2,1.5-2.3,2.8-3.4,4.1c-2.6,3-5,5.4-7.3,7.3c-0.5,0.4-1,0.8-1.5,1.2c-4.8,3.5-9.1,4-12.1,0.4c-5.2-6.4,0-15.7,8.9-19.2
	c5.5-2.2,10.4,0,12,3.8C-589.8,1087.6-589.8,1090-591.1,1092.4z"/>
<path id="Path-3-Copy" d="M-465.9,1085.8c-0.3-0.6-0.6-1.2-1.1-1.7c-2.6-2.8-8.4-4.2-13.2-2.3c-8,3.2-13,12.5-8.1,18.6
	c2.8,3.5,7,3,11.7-0.4c0.4-0.3,0.8-0.6,1.3-1c2.3-1.8,4.7-4.3,7.5-7.5c0.3-0.3,0.5-0.6,0.8-0.9c0.4-0.5,0.9-1,1.3-1.6
	c0.5-0.6,1-1.3,1.6-1.9c1.6-2-1-4.4-2.8-3c-0.1,0.1-0.2,0.2-0.3,0.3c-0.9,1-1.8,2-2.5,2.9c-0.4,0.5-0.8,1-1.2,1.5
	c-2.9,4-4.4,7.5-4.3,10.2c0,1.2,0.4,2.2,1.1,3c1.6,2.4,4.8,3,9.2,2.3c3.3-0.5,7.3-1.6,12.6-3.4c1-0.3,2.1-0.7,3.3-1.2
	c0.6-0.2,1.2-0.4,2-0.7c-0.2,0.1,1.5-0.6,2-0.7c1.6-0.6,2.7-0.9,3.7-1.3c2.6-0.9,4.4-1.4,5.7-1.7c1.1-0.2,1.9-1.3,1.6-2.4
	c-0.2-1.1-1.3-1.8-2.4-1.6c-1.5,0.3-3.5,0.9-6.2,1.8c-1,0.4-2.2,0.8-3.7,1.3c-0.4,0.2-2.1,0.8-2,0.7c-0.8,0.3-1.4,0.5-2,0.7
	c-1.2,0.4-2.2,0.8-3.2,1.1c-10,3.5-16,4.3-17,2.7c-0.1-0.1-0.2-0.3-0.3-0.4c-0.1-0.1-0.1-1.1,0.5-2.8c0.5-1.5,1.5-3.1,2.8-5
	c0.2-0.3,0.4-0.6,0.6-0.9c0.5-0.6,1-1.2,1.5-1.9c0.4-0.5,0.9-1,1.4-1.6l-3.1-2.7c-0.8,1-1.6,2-2.4,2.9c-0.4,0.5-0.8,1-1.2,1.4
	c-3.1,3.5-5.7,6.1-8,7.8c-3.1,2.3-4.9,2.5-6,1.2c-2.8-3.5,0.6-9.9,6.4-12.2c2.4-0.9,5-0.8,7,0.2c1,0.5,1.6,1,1.8,1.4
	c0,0,0,0.1,0,0.1c0.1,0.2,0.1,0.4,0,0.5c-0.4,1.1,0.1,2.3,1.2,2.7c0.5,0.2,0.9,0.2,1.4,0.1c0,0,0.1,0,0.1,0c0.5-0.2,1-0.6,1.2-1.2
	c0.1-0.1,0.1-0.3,0.1-0.4c0-0.1,0.1-0.2,0.1-0.3C-465.4,1087.7-465.5,1086.7-465.9,1085.8z"/>
<path id="Path-4" d="M-553.6,1083.5c6.1-13.3,3.2-24.9-5.7-28.6c-9.5-4-20.6-0.8-24.5,8.3c-0.5,1.1-1.7,1.5-2.7,1.1
	c-1.1-0.5-1.5-1.7-1.1-2.7c4.9-11.3,18.4-15.2,29.9-10.5c11.3,4.7,14.9,18.9,7.8,34.1c-3.3,7.2-7.5,12.3-12.2,15.3
	c-3.7,2.4-7.7,3.4-10.5,2.9c-5.5-0.9-8.4-6.2-6.2-12.5c2.2-6.1,8.5-9.8,15.4-9.8c3.9,0,6.8,2.3,8.2,5.3
	C-554.6,1085.5-554.1,1084.5-553.6,1083.5z M-563.2,1085.3c-5.3,0-10,2.8-11.5,7.1c-1.4,3.9,0.1,6.5,2.9,7c1.7,0.3,4.6-0.4,7.5-2.3
	c2-1.3,3.8-3,5.6-5.2C-557.7,1088.8-559.7,1085.3-563.2,1085.3z"/>
<path id="Path-5" d="M-542.1,1097.8c2,1.2,4.7,0.9,7.1-0.7c1.1-0.7,2-1.6,2.6-2.5c0.5-0.7,0.7-1.4,0.6-1.7c-0.2-1-1.7-2.2-3.6-2.5
	c-2.5-0.3-5.2,0.8-7.8,3.7C-543.5,1095.9-543.2,1097.1-542.1,1097.8z M-546.9,1092.2c0.5-1.6,1.3-3.2,2.3-5.1
	c0.8-1.4,1.7-2.9,2.9-4.5c0.5-0.7,1-1.4,1.6-2.2c0.3-0.5,1.5-2,1.4-2c0.7-0.9,2-1.1,2.9-0.5c0.9,0.7,1.1,2,0.5,2.9
	c0-0.1-1.1,1.5-1.4,2c-0.6,0.8-1.1,1.5-1.5,2.1c-0.4,0.6-0.8,1.2-1.2,1.8c-0.5,0.8-1,1.6-1.5,2.4c-1.1,2-1.8,3.6-2.1,4.9
	c-0.1,0.1-0.3,0.3-0.4,0.4c-0.7,0.9-2,1-2.9,0.3c-0.5-0.4-0.7-1-0.7-1.6C-547.1,1092.9-547,1092.5-546.9,1092.2
	c0.1-0.1,0.1-0.2,0.2-0.3c2.2-2.6,4.6-4.3,7.2-5.1c1.5-0.5,3.1-0.6,4.7-0.4c3.6,0.5,6.7,2.8,7.2,5.8c0.5,2.9-1.7,6.3-5.1,8.4
	c-3.7,2.3-7.9,2.8-11.5,0.8c-2.5-1.5-3.5-3.9-3.2-6.8c0-0.4,0.1-0.9,0.2-1.3C-547.1,1092.9-547,1092.5-546.9,1092.2z"/>
<path id="Path-6" d="M-507,1085.5c-5.4,0-10.2,3.2-11.3,7.7c-0.9,4.1,1.5,6.6,5.4,6.2c2.4-0.2,7.1-2.5,10.2-5.3
	c0.3-0.3,0.6-0.6,0.9-0.9C-500.8,1088.4-502.8,1085.5-507,1085.5z M-499.1,1082.2c-3.7-8.6-10.4-11.3-19.8-11.3
	c-2.6,0-2.8-3.9-0.2-4.1c7.8-0.8,18.2-5.1,26.3-11.5c10-7.9,15.7-18,15.7-30c0-1.1,0.9-2.1,2.1-2.1c1.1,0,2.1,0.9,2.1,2.1
	c0,13.3-6.4,24.7-17.3,33.3c-5.4,4.2-11.7,7.6-17.9,9.8c0.4,0.1,0.8,0.3,1.2,0.5c5.1,2.1,9.1,5.9,11.6,11.7
	c2.6,6.1,0.6,11.9-4.5,16.6c-3.8,3.4-9.2,6-12.6,6.4c-6.6,0.7-11.5-4.2-9.9-11.2c1.5-6.6,8.1-10.9,15.3-10.9c4.2,0,7.2,1.9,8.7,5
	C-498.2,1085.1-498.5,1083.7-499.1,1082.2z"/>
<path id="Path-7" class="st0" d="M-568.9,1133.9c4,0.2,7.8-1.5,10-4.5c4.3,4.9,11.4,5,15.7,0c1.9,2.8,4.7,4.2,8.8,4.2
	c3.2,0,5.9-1.3,7.7-3.3c2,3.2,5.3,5.1,9.8,5.2c4.3,0.1,7.8-2.1,10-5.2c1.8,2.3,4.8,3.7,8.5,3.7c3.6,0,6.4-1.5,8.1-3.7
	c1.8,2.4,4.3,3.8,7.8,4c4.4,0.2,7.9-1.3,10.1-4.5c1.9,2.3,4.6,3.6,8.2,3.6c3.8,0,7-1.1,9-3.3c2.2,3.1,5.8,4.9,10.1,4.8
	c6.2-0.2,10.4-4.7,9.7-10c-0.1-1.1-1.2-1.9-2.3-1.8s-1.9,1.2-1.8,2.3c0.4,2.8-1.9,5.2-5.7,5.3c-4.1,0.2-7.1-2.3-7.8-6.1
	c-0.4-2.4-3.8-2.3-4.1,0.1c-0.3,3-2.8,4.6-7,4.6c-3.4,0-5.3-1.6-6.3-4.8c-0.6-2-3.5-2-4,0.1c-1.1,4.1-3.7,5.9-7.8,5.7
	c-3.3-0.2-5-1.9-6.1-5.6c-0.6-2.2-3.9-1.9-4.1,0.4c-0.2,2.8-2.4,5-5.9,5c-3.8,0-6-1.9-6.4-5.1c-0.3-2.3-3.7-2.4-4.1-0.1
	c-0.7,3.7-3.8,6.8-7.8,6.7c-4.4-0.1-6.8-2.4-7.7-6.7c-0.5-2.2-3.7-2.2-4.1,0.1c-0.4,2.7-2.6,4.7-5.8,4.7c-3.7,0-5.4-1.4-6.6-5
	c-0.6-1.8-3.2-2-3.9-0.2c-2.7,6.4-9.9,6.2-12.4-0.2c-0.8-2-3.8-1.6-4,0.5c-0.3,3.1-3.7,5.4-7.4,5.2c-2.9-0.1-5.1-2.4-5.8-5.6
	c-0.5-2.3-3.8-2.2-4.1,0.2c-0.4,3.7-3.2,6.2-7.8,6.2c-4,0-6.8-3.1-6.8-5.9c0-1.1-0.9-2.1-2.1-2.1c-1.1,0-2.1,0.9-2.1,2.1
	c0,5,4.5,10,10.9,10c4.5,0,8-1.8,10-4.7C-574.5,1132.3-572,1133.8-568.9,1133.9z"/>
<path id="Path-8" class="st0" d="M-519.4,1144.1c1.1,0,2.1-0.9,2.1-2.1s-0.9-2.1-2.1-2.1c-2.3,0-5-1.4-7.3-3.3
	c-0.9-0.8-2.2-0.7-3,0.2c-1.6,2-4.5,3.1-6.8,3.1c-1.1,0-2.1,0.9-2.1,2.1s0.9,2.1,2.1,2.1c2.9,0,6.1-1.1,8.5-3.2
	C-525.2,1142.8-522.3,1144.1-519.4,1144.1z"/>
<path id="Path-9" class="st0" d="M-445.6,1143.1c1.1-0.2,1.9-1.2,1.8-2.3c-0.2-1.1-1.2-1.9-2.3-1.8c-3.1,0.4-6.6-0.7-9.3-3.2
	c-0.8-0.7-1.9-0.7-2.7-0.1c-3.3,2.6-9.5,3-12.5,0.7c-0.9-0.7-2.2-0.5-2.9,0.4c-0.7,0.9-0.5,2.2,0.4,2.9c4.1,3.2,11.3,3.2,16.2,0.3
	C-453.6,1142.4-449.4,1143.6-445.6,1143.1z"/>
<path id="Combined-Shape" class="st0" d="M-703.6,1467.6c0-10.1,8.2-18.2,18.2-18.2h233.1c10.1,0,18.2,8.2,18.2,18.2
	c0,10.1-8.2,18.2-18.2,18.2h-233.1C-695.4,1485.8-703.6,1477.7-703.6,1467.6z M-691.5,1470.3c1.8,0,3.3-1.5,3.3-3.3
	s-1.5-3.3-3.3-3.3s-3.3,1.5-3.3,3.3S-693.4,1470.3-691.5,1470.3z M-445.6,1470.3c1.8,0,3.3-1.5,3.3-3.3s-1.5-3.3-3.3-3.3
	s-3.3,1.5-3.3,3.3S-447.5,1470.3-445.6,1470.3z"/>
<g>
	<path class="st0" d="M-702.3,1342.2c0.1,1.8,0.2,3.6,0.4,5.4c0.1,0.6,0.1,1.2,0.1,1.7c0,0.3,0,0.5,0.1,0.7c0.1,1,0.9,1.9,2,1.9
		l8.4,0.3c1.1,0,2-0.8,2.1-1.9l1.6-15.1c0.1-1.1-0.6-2.1-1.7-2.3c-0.1,0-0.2,0-0.4-0.1c-0.9-0.2-1.9-0.5-2.8-0.9
		c-0.7-0.3-1.1-0.6-1.4-0.9c0-0.2,0-0.4,0-0.6c0-0.7,0-1.8-0.1-3.2c0-0.1,0-0.1,0-0.3c0-0.8-0.1-1.7-0.1-2.6c0-0.3,0-0.6,0-0.8
		c0-0.3,0-0.3,0-0.3c-0.1-1.1-1-2-2.2-2c-1.1,0.1-2,1-2,2.2c0,0.1,0,0.1,0,0.3c0,0.3,0,0.5,0,0.8c0,0.9,0.1,1.7,0.1,2.6
		c0,0.1,0,0.1,0,0.3c0,1.2,0.1,2.2,0.1,2.9c-0.1,0.2-0.2,0.5-0.2,0.7c-0.4,0.5-1.4,1.1-2.5,1.2c-1,0.1-1.9,1-1.9,2
		c0,1.6,0,4,0.2,6.9C-702.4,1341.5-702.3,1341.8-702.3,1342.2z M-696.1,1334.7c0.5,0.4,1.2,0.8,1.8,1.1c0.8,0.4,1.5,0.7,2.3,0.9
		l-1.2,11.3l-4.7-0.2c0-0.2,0-0.4,0-0.5c-0.1-1.8-0.3-3.6-0.4-5.4c0-0.4,0-0.7-0.1-1c-0.1-2-0.2-3.6-0.2-5
		C-697.6,1335.6-696.8,1335.2-696.1,1334.7z"/>
	<path class="st0" d="M-581.4,1330.1c-1,0.2-1.7,1.2-1.6,2.3c0.2,1.6,0.6,3.9,1.2,6.9c0.1,0.3,0.1,0.7,0.2,1
		c0.4,1.7,0.7,3.6,1.1,5.3c0.1,0.6,0.3,1.2,0.4,1.7c0.1,0.3,0.1,0.5,0.1,0.6c0.2,1,1.2,1.7,2.2,1.6l8.4-0.9c1.1-0.1,1.9-1,1.9-2.1
		l-0.5-15.1c0-1.1-0.9-2-2-2c-0.1,0-0.2,0-0.4,0c-1-0.1-2-0.3-2.9-0.5c-0.7-0.2-1.2-0.5-1.5-0.7c0-0.2,0-0.4,0-0.6
		c-0.1-0.7-0.3-1.8-0.5-3.2c0-0.1,0-0.1,0-0.3c-0.1-0.8-0.3-1.7-0.5-2.6c-0.1-0.3-0.1-0.6-0.2-0.8c0-0.3,0-0.3-0.1-0.3
		c-0.2-1.1-1.3-1.9-2.4-1.6s-1.9,1.3-1.6,2.4c0,0.1,0,0.1,0.1,0.3c0,0.2,0.1,0.5,0.2,0.8c0.2,0.9,0.3,1.7,0.5,2.5c0,0.1,0,0.1,0,0.3
		c0.2,1.2,0.4,2.2,0.5,2.9c-0.1,0.2-0.1,0.5-0.1,0.7C-579.4,1329.2-580.3,1329.8-581.4,1330.1z M-574.5,1332.7
		c0.8,0.2,1.6,0.4,2.4,0.6l0.4,11.4l-4.6,0.5c0-0.2-0.1-0.3-0.1-0.5c-0.4-1.8-0.8-3.6-1.1-5.3c-0.1-0.3-0.1-0.7-0.2-1
		c-0.4-1.9-0.7-3.6-0.9-4.9c0.8-0.4,1.6-0.9,2.2-1.6C-575.9,1332.3-575.2,1332.5-574.5,1332.7z"/>
	<path class="st0" d="M-437.8,1330.6c-0.1,0-0.2-0.1-0.4-0.1c-0.9-0.3-1.9-0.7-2.7-1.2c-0.6-0.4-1.1-0.8-1.3-1.1
		c0-0.2,0.1-0.4,0.1-0.6c0.1-0.7,0.2-1.8,0.3-3.2c0-0.1,0-0.1,0-0.3c0.1-0.8,0.1-1.7,0.2-2.6c0-0.3,0-0.6,0-0.8c0-0.3,0-0.3,0-0.3
		c0.1-1.1-0.8-2.1-2-2.2s-2.1,0.8-2.2,2c0,0.1,0,0.1,0,0.3c0,0.3,0,0.5,0,0.8c-0.1,0.9-0.1,1.7-0.2,2.6c0,0.1,0,0.1,0,0.3
		c-0.1,1.2-0.2,2.2-0.2,2.9c-0.1,0.2-0.2,0.4-0.3,0.7c-0.5,0.5-1.5,0.9-2.6,0.9c-1.1,0-2,0.8-2.1,1.8c-0.2,1.6-0.4,3.9-0.5,6.9
		c0,0.3,0,0.7,0,1.1c-0.1,1.8-0.1,3.6-0.2,5.5c0,0.6,0,1.2,0,1.8c0,0.3,0,0.5,0,0.7c0,1,0.7,1.9,1.8,2.1l8.3,1.2
		c1.1,0.1,2.1-0.6,2.3-1.6l3.2-14.8C-436.1,1332-436.8,1330.9-437.8,1330.6z M-443.2,1345.1l-4.6-0.6c0-0.2,0-0.4,0-0.5
		c0-1.8,0.1-3.6,0.2-5.4c0-0.4,0-0.7,0-1c0.1-2,0.2-3.6,0.3-5c0.9-0.2,1.8-0.5,2.5-1c0.5,0.5,1.1,0.9,1.7,1.3
		c0.7,0.4,1.5,0.8,2.2,1.1L-443.2,1345.1z"/>
	<path class="st0" d="M-628.8,1340.8c0.1,1.8,0.3,3.7,0.5,5.5c0.1,0.6,0.1,1.2,0.2,1.8c0,0.3,0.1,0.5,0.1,0.7c0.1,1,1,1.8,2,1.9
		l8.4,0.1c1.1,0,2-0.8,2.1-1.9l1.3-15.1c0.1-1.1-0.7-2.1-1.7-2.2c-0.1,0-0.4-0.1-0.7-0.2c-0.9-0.2-1.8-0.5-2.6-0.9
		c-0.6-0.3-1.1-0.6-1.4-0.9c0-0.2,0-0.4,0-0.6c0-0.7-0.1-1.8-0.1-3.2c0-0.1,0-0.1,0-0.2c0-0.8-0.1-1.7-0.2-2.6c0-0.3,0-0.6-0.1-0.9
		c0-0.2,0-0.3,0-0.3c-0.1-1.1-1.1-2-2.2-1.9s-2,1.1-1.9,2.2c0,0.1,0,0.2,0,0.3c0,0.3,0,0.5,0.1,0.8c0.1,0.9,0.1,1.8,0.2,2.6
		c0,0.1,0,0.1,0,0.2c0.1,1.2,0.1,2.2,0.1,2.9c-0.1,0.2-0.2,0.5-0.2,0.7c-0.4,0.5-1.3,1.1-2.5,1.2c-1,0.1-1.9,1-1.9,2
		c0,1.6,0.1,3.9,0.3,6.9C-628.8,1340.2-628.8,1340.5-628.8,1340.8z M-622.7,1333.3c0.5,0.4,1.1,0.7,1.7,1c0.8,0.4,1.6,0.7,2.5,0.9
		l-1,11.3l-4.7-0.1c0-0.2,0-0.4-0.1-0.6c-0.2-1.8-0.3-3.7-0.5-5.5c0-0.3,0-0.6-0.1-0.9c-0.1-1.9-0.2-3.6-0.3-4.9
		C-624.1,1334.3-623.3,1333.9-622.7,1333.3z"/>
	<path class="st0" d="M-676.5,1351.3l15.7-1.8c1.3-0.2,2.2-1.5,1.7-2.7l-6.1-18.1c-0.3-0.9-1.2-1.5-2.2-1.4c-0.1,0-0.1,0-0.3,0
		c-0.4,0-0.4,0-0.9,0.1c-0.1,0-0.2,0-0.3,0l-0.6-6.4c-0.1-1.1-1.1-2-2.3-1.9c-1.1,0.1-2,1.1-1.9,2.3l0.6,6.5
		c-1.2,0.1-1.9,0.2-2.1,0.3c-0.8,0.1-1.3,0.5-1.6,1.1c-0.1,0.2-0.2,0.4-0.3,0.6c-0.1,0.2-0.1,0.5-0.2,0.9c-0.1,0.5-0.2,1.3-0.3,2.2
		c-0.2,1.6-0.4,3.8-0.6,6.4c0,0.3,0,0.3,0,0.5c-0.1,2-0.3,4.2-0.4,6.4c0,0.8-0.1,1.5-0.1,2.1c0,0.4,0,0.6,0,0.8
		C-678.9,1350.4-677.8,1351.5-676.5,1351.3z M-674.5,1346.5c0.1-2.1,0.3-4.3,0.4-6.3c0-0.3,0-0.3,0-0.5c0.2-2.6,0.4-4.7,0.5-6.3
		c0.1-0.5,0.1-0.9,0.1-1.2c0.6-0.1,1.5-0.2,2.5-0.3c0.7-0.1,1.5-0.2,2.3-0.3l4.8,14.1l-10.7,1.2
		C-674.5,1346.8-674.5,1346.7-674.5,1346.5z"/>
	<path class="st0" d="M-507.1,1319.3c-1.1-0.1-2.2,0.7-2.3,1.9l-0.7,6.5c-1.2-0.1-2-0.1-2.1-0.1c-0.8-0.1-1.4,0.3-1.8,0.7
		c-0.1,0.2-0.3,0.3-0.4,0.5c-0.1,0.2-0.2,0.5-0.4,0.8c-0.2,0.5-0.4,1.2-0.7,2.1c-0.5,1.5-1.1,3.7-1.8,6.2c-0.1,0.3-0.1,0.3-0.1,0.5
		c-0.5,2-1.1,4.1-1.6,6.2c-0.2,0.7-0.4,1.4-0.5,2c-0.1,0.4-0.2,0.6-0.2,0.8c-0.3,1.2,0.6,2.5,1.8,2.6l15.8,1.2
		c1.3,0.1,2.4-1,2.2-2.4l-2.6-19c-0.1-1-0.9-1.7-1.9-1.8c-0.1,0-0.1,0-0.3,0c-0.4,0-0.4,0-0.9-0.1c-0.1,0-0.2,0-0.3,0l0.7-6.4
		C-505.1,1320.5-505.9,1319.4-507.1,1319.3z M-504.3,1346.9l-10.8-0.8c0-0.1,0.1-0.3,0.1-0.4c0.5-2.1,1.1-4.2,1.6-6.1
		c0.1-0.3,0.1-0.3,0.1-0.5c0.7-2.5,1.3-4.5,1.7-6c0.1-0.5,0.3-0.8,0.4-1.2c0.6,0,1.5,0.1,2.5,0.2c0.7,0,1.5,0.1,2.3,0.2
		L-504.3,1346.9z"/>
	<path class="st0" d="M-598.4,1319.3c-1.1-0.1-2.1,0.8-2.2,1.9l-0.6,6.6c-1.2-0.1-2-0.1-2.1-0.1c-0.8-0.1-1.4,0.3-1.8,0.8
		c-0.1,0.2-0.3,0.3-0.4,0.5c-0.1,0.2-0.2,0.5-0.4,0.8c-0.2,0.5-0.4,1.2-0.7,2.1c-0.5,1.6-1,3.7-1.7,6.2c-0.1,0.3-0.1,0.3-0.1,0.5
		c-0.5,2-1,4.1-1.5,6.2c-0.2,0.7-0.3,1.4-0.5,2c-0.1,0.4-0.1,0.6-0.2,0.8c-0.3,1.2,0.6,2.5,1.9,2.5l15.8,1c1.3,0.1,2.4-1.1,2.2-2.4
		l-2.9-18.9c-0.1-1-1-1.7-1.9-1.8c-0.1,0-0.1,0-0.3,0c-0.4,0-0.4,0-0.9,0c-0.1,0-0.2,0-0.3,0l0.5-6.4
		C-596.4,1320.4-597.3,1319.4-598.4,1319.3z M-595.1,1346.8l-10.8-0.7c0-0.1,0.1-0.3,0.1-0.4c0.5-2.1,1-4.2,1.5-6.1
		c0.1-0.3,0.1-0.3,0.1-0.5c0.6-2.5,1.2-4.6,1.6-6.1c0.1-0.5,0.3-0.8,0.4-1.2c0.7,0,1.5,0.1,2.5,0.1c0.7,0,1.5,0.1,2.3,0.1
		L-595.1,1346.8z"/>
	<path class="st0" d="M-651.2,1350l9.9,1.5c1.2,0.2,2.2-0.6,2.4-1.8l2.4-19c0.1-1.1-0.7-2.2-1.8-2.3l-2.2-0.2l0.8-5.8
		c0.2-1.1-0.6-2.2-1.8-2.3s-2.2,0.6-2.3,1.8l-0.8,5.9l-3-0.3c-1.1-0.1-2.1,0.6-2.3,1.7l-3,18.5
		C-653.1,1348.8-652.3,1349.9-651.2,1350z M-646.2,1331.8l5.3,0.6l-1.8,14.8l-5.8-0.9L-646.2,1331.8z"/>
	<path class="st0" d="M-548.6,1349.7l2-19c0.1-1.1-0.7-2.2-1.9-2.3l-2.2-0.2l0.7-5.8c0.1-1.1-0.7-2.2-1.8-2.3s-2.2,0.7-2.3,1.8
		l-0.7,5.9l-3-0.3c-1.1-0.1-2.1,0.7-2.3,1.8l-2.6,18.5c-0.2,1.1,0.6,2.2,1.8,2.3l10,1.3C-549.8,1351.6-548.8,1350.8-548.6,1349.7z
		 M-558.3,1346.3l2.1-14.5l5.3,0.5l-1.6,14.8L-558.3,1346.3z"/>
	<path class="st0" d="M-535.9,1345.9c-1,0.6-1.3,1.9-0.7,2.8c0.6,1,1.9,1.3,2.8,0.7l2.8-1.7c0,0,0,0,0.1,0c0.2,0,0.4-0.1,0.5-0.2
		l3.5,0.2c1.1,0.1,2.1-0.8,2.2-2c0.1-1.1-0.8-2.1-2-2.2l-2.7-0.1l-0.6-5.2c2.2-0.9,3.4-2.9,3.5-5.5c0-2.2-0.8-4.8-2-6.9
		c-0.4-0.7-1.2-1.1-2-1.1c-0.1,0-0.1,0-0.3,0c-0.3,0-0.6,0-0.9,0.1c-0.9,0.1-1.9,0.2-2.7,0.2c-0.1,0-0.1,0-0.2,0
		c-1,0.1-1.8,0.1-2.5,0.2c-1,0.1-1.8,0.8-1.9,1.9c-0.3,3.3-0.4,5.3,0.2,7.2c0.7,2.4,2.3,4,4.8,4.3l0.7,5.6L-535.9,1345.9z
		 M-534.8,1333.3c-0.3-0.9-0.3-2.1-0.2-3.9c0.2,0,0.5,0,0.7-0.1c0.1,0,0.1,0,0.2,0c0.8-0.1,1.7-0.1,2.6-0.2c0.6,1.3,0.9,2.6,0.9,3.7
		c0,1.3-0.4,1.8-1.8,1.9C-533.9,1334.9-534.5,1334.5-534.8,1333.3z"/>
	<path class="st0" d="M-460.9,1333.6c0.3-2.2-0.1-4.9-1-7.1c-0.3-0.8-1-1.3-1.8-1.3c-0.1,0-0.1,0-0.3,0c-0.3,0-0.6,0-0.9-0.1
		c-0.9-0.1-1.9-0.1-2.8-0.2c-0.1,0-0.1,0-0.2,0c-1-0.1-1.8-0.1-2.5-0.2c-1-0.1-1.9,0.6-2.2,1.6c-0.8,3.2-1.1,5.2-0.8,7.1
		c0.4,2.5,1.8,4.2,4.1,5l-0.1,5.7l-2.7,1.1c-1.1,0.4-1.6,1.7-1.1,2.7c0.4,1.1,1.7,1.6,2.7,1.1l3-1.3c0,0,0,0,0.1,0
		c0.2,0,0.4,0,0.6-0.1l3.4,0.7c1.1,0.2,2.2-0.5,2.4-1.6c0.2-1.1-0.5-2.2-1.6-2.4l-2.6-0.5l0.1-5.2
		C-462.7,1338-461.3,1336.2-460.9,1333.6z M-468.9,1329c0.2,0,0.5,0,0.7,0c0.1,0,0.1,0,0.2,0c0.8,0.1,1.7,0.1,2.6,0.2
		c0.4,1.3,0.5,2.7,0.4,3.8c-0.2,1.3-0.7,1.7-2.1,1.6c-1.5-0.1-2-0.5-2.2-1.8C-469.4,1331.9-469.3,1330.7-468.9,1329z"/>
	<path class="st0" d="M-479.4,1333.8c0.1-2.2-0.6-4.8-1.6-7c-0.4-0.7-1.1-1.2-1.9-1.2c-0.1,0-0.1,0-0.4,0c-0.3,0-0.6,0-0.9,0
		c-1,0-2,0.1-2.9,0.1c-0.1,0-0.1,0-0.1,0c-0.9,0-1.7,0-2.4,0.1c-1,0-1.9,0.8-2,1.8c-0.5,3.3-0.6,5.2-0.2,7.2
		c0.6,2.5,2.1,4.1,4.5,4.6l0.4,5.8l-2.9,0.1c-1.1,0-2.1,1-2,2.1c0,1.1,1,2,2.1,2l9.2-0.3c1.1,0,2.1-1,2-2.1c0-1.1-1-2-2.1-2
		l-2.2,0.1l-0.4-5.9C-480.8,1338.3-479.5,1336.3-479.4,1333.8z M-487.8,1329.9c0.2,0,0.4,0,0.6,0c0.1,0,0.1,0,0.1,0
		c0.9,0,1.8-0.1,2.8-0.1c0.5,1.3,0.8,2.7,0.7,3.7c-0.1,1.3-0.5,1.7-1.9,1.8c-1.5,0.1-2.1-0.4-2.3-1.6
		C-488,1332.8-488,1331.6-487.8,1329.9z"/>
	<path class="st0" d="M-624.2,1308.3h185.7c1.1,0,2.1-0.9,2.1-2.1c0-1.1-0.9-2.1-2.1-2.1h-185.7c-1.1,0-2.1,0.9-2.1,2.1
		C-626.3,1307.3-625.4,1308.3-624.2,1308.3z"/>
	<path class="st0" d="M-532.9,1367.9c-1.1,0-2.1,0.9-2.1,2.1s0.9,2.1,2.1,2.1h95.1c1.1,0,2.1-0.9,2.1-2.1s-0.9-2.1-2.1-2.1H-532.9z"
		/>
	<path class="st0" d="M-607.8,1367.9h-92.5c-1.1,0-2.1,0.9-2.1,2.1s0.9,2.1,2.1,2.1h92.5c1.1,0,2.1-0.9,2.1-2.1
		S-606.6,1367.9-607.8,1367.9z"/>
	<path class="st0" d="M-564.8,1386.5c7.8-2.1,11.1-9.6,9.5-16.5c-1.5-6.5-8.4-11.6-16.2-9.8c-7.7,1.8-11.3,10.1-9.6,16.6
		C-579.5,1383.4-572.7,1388.7-564.8,1386.5z M-570.6,1364.3c5.4-1.3,10.2,2.2,11.2,6.7c1.1,4.8-1.1,10-6.5,11.5
		c-5.3,1.5-10.1-2.2-11.2-6.7C-578.3,1371.4-575.8,1365.5-570.6,1364.3z"/>
	<path class="st0" d="M-551.2,1387c1.1,0.2,2.2-0.6,2.3-1.8l1.3-8.6c0,0,3.2-0.4,3.7-1.1c0.5-0.7,1.2-1.9,1.8-3.5
		c0.7-1.6,1.2-3.4,1.5-5.2c0.5-3-0.7-5.6-2.8-7.8c-1-1.1-2.1-1.8-2.8-2.2c-1.3-0.7-2.9,0.1-3.1,1.5l-3.8,26.3
		C-553.1,1385.8-552.4,1386.8-551.2,1387z M-545.7,1362.7c0.8,1.1,1.2,2.3,1,3.5c-0.2,1.6-0.7,3-1.2,4.3c-0.2,0.5-0.4,1-0.7,1.5
		c-0.1,0.2-0.2,0.4-0.3,0.6C-547,1372.8-545.7,1362.7-545.7,1362.7z"/>
	<path class="st0" d="M-584.4,1358.8c-0.5-1-1.7-1.5-2.8-1c-1,0.5-1.5,1.7-1,2.7c1.2,2.6,1.1,5.2-0.5,6.7l-0.8-4.6
		c-0.2-1.1-1.3-1.9-2.4-1.7c-1.1,0.2-1.9,1.3-1.7,2.4l0.8,5c-0.8-0.1-1.3-0.6-1.7-1.3c-0.5-1.1-0.7-2.7-0.7-5.5
		c0-1.1-0.9-2.1-2.1-2.1c-1.1,0-2.1,0.9-2.1,2.1c0,3.4,0.2,5.4,1.1,7.3c1.1,2.4,3.2,3.7,6.1,3.7l2.3,13.4c0.2,1.1,1.3,1.9,2.4,1.7
		s1.9-1.3,1.7-2.4l-2.3-13.6C-583.2,1369.5-582.1,1363.8-584.4,1358.8z"/>
	<path class="st0" d="M-615.5,1399.3c-2.2,0.3-4.6,0.5-7.3,0.6c0.5-2.5,1-3.5,1.7-4.1c4.4-3.4,6-9.1,1.6-11.5
		c-2.2-1.2-4.4-0.7-6.4,1c-1.3,1-2.3,2.2-3.9,4.4c-0.4,0.5-1.3,1-3.4,1.7c-0.2,0.1-1.2,0.4-1.5,0.5c-0.6,0.2-1.2,0.4-1.7,0.6
		c-2.4,0.9-4.3,2-5.9,3.6c-1,1.1-1.8,2.2-2.5,3.5c-0.8-0.1-1.7-0.1-2.5-0.2c0.2-2.9-0.7-5.6-2.9-7.7c-4.9-4.7-15.1-4-19.4,1.2
		c-1.1,1.3-2,2.8-2.7,4.2c-0.4,0-0.8,0-1.2,0c0,0-0.1,0-0.1,0c0.4-1.3,0.7-2.7,1.1-4c0.2-0.8,0.4-1.6,0.6-2.3
		c0.1-0.2,0.1-0.5,0.2-0.7c0-0.2,0-0.2,0.1-0.2c0.2-0.9-0.2-1.9-1.1-2.3l-6.8-3.4c-1.1-0.6-2.5,0-2.9,1.2c0,0,0,0-0.1,0.2
		c-0.1,0.2-0.1,0.4-0.2,0.6c-0.2,0.7-0.4,1.4-0.7,2.2c-0.7,2.3-1.4,4.6-2,6.9c-0.1,0.3-0.2,0.7-0.3,1c-0.1,0.3-0.2,0.6-0.3,0.9
		c-4.5,0.2-9.2,0.5-15,1c-1.1,0.1-2,1.1-1.9,2.2c0.1,1.1,1.1,2,2.2,1.9c5.2-0.4,9.5-0.7,13.5-0.9c-1.4,5-1.5,6.3-1,7.3
		c1.2,2,6.4,4.1,8.9,3c1.5-0.7,2.3-2.9,4.1-8.9c0.2-0.5,0.3-1,0.5-1.6c0.3,0,0.6,0,1,0c0.1,0,0.2,0,0.2,0c-0.5,3.7,0.8,7.5,4.1,10.3
		c5.9,5.1,13.4,2.8,18.2-3.2c1.3-1.6,2.2-3.3,2.9-5c0.7,0.1,1.5,0.1,2.2,0.2c-0.5,3.9,1.1,7.6,5.2,9.6c6.3,3,11.1,0.7,15.2-5.4
		c0.7-1.1,1.3-2.3,1.7-3.6c3.3-0.1,6.3-0.4,9-0.7c1.1-0.2,1.9-1.2,1.8-2.3C-613.3,1399.9-614.4,1399.1-615.5,1399.3z M-679.1,1401.6
		c-0.6,2.1-1.2,3.8-1.6,5c-0.2,0.5-0.4,0.9-0.5,1.2c0,0,0,0-0.1,0c-0.4-0.1-0.9-0.2-1.5-0.5c-0.5-0.2-1-0.4-1.3-0.7
		c0.1-0.5,0.3-1.3,0.5-2.2c0.5-1.8,1.1-4.2,2-7.1c0.1-0.3,0.2-0.6,0.3-1c0.6-2.2,1.3-4.5,2-6.8c0.1-0.2,0.1-0.5,0.2-0.7l3.1,1.5
		c-0.1,0.5-0.3,1-0.4,1.6c-0.6,2.4-1.3,4.8-1.9,7C-678.6,1399.9-678.9,1400.8-679.1,1401.6z M-654.4,1405.7
		c-3.5,4.3-8.5,5.9-12.2,2.7c-3.9-3.4-3.4-8.5,0.2-12.9c2.8-3.4,10.2-3.9,13.4-0.9c1.5,1.5,1.9,3.6,1.3,5.9c0,0.1-0.1,0.2-0.1,0.3
		C-652.2,1402.4-653.1,1404.1-654.4,1405.7z M-629,1405.4c-3.1,4.6-5.8,5.9-9.9,3.9c-2.5-1.2-3.4-3.6-2.7-6.2
		c0.4-0.3,0.6-0.8,0.6-1.4c0-0.1,0-0.2,0-0.3c0.4-0.9,1-1.8,1.8-2.6c1.1-1.1,2.4-1.9,4.3-2.6c0.4-0.2,0.9-0.3,1.5-0.5
		c0.3-0.1,1.3-0.4,1.5-0.5c2.9-1,4.3-1.7,5.4-3.1c2.7-3.5,4.1-4.7,5-4.2c0.9,0.5,0.2,2.7-2.2,4.6c-1.9,1.4-2.5,3.1-3.3,6.8
		c-0.4,1.8-0.5,2.2-0.7,3C-628,1403.5-628.5,1404.5-629,1405.4z"/>
	<path class="st0" d="M-660.6,1399.1c1.1-0.4,1.6-1.6,1.2-2.7l-0.3-0.9c-0.4-1.1-1.6-1.6-2.7-1.2c-1.1,0.4-1.6,1.6-1.2,2.7l0.3,0.9
		C-662.9,1399-661.7,1399.5-660.6,1399.1z"/>
	<path class="st0" d="M-656.4,1397.6l-1.6,1c-1,0.6-1.3,1.9-0.7,2.8c0.6,1,1.9,1.3,2.9,0.7l1.6-1c1-0.6,1.3-1.9,0.7-2.8
		C-654.1,1397.3-655.4,1397-656.4,1397.6z"/>
	<path class="st0" d="M-657.6,1404.3c-0.3-1.1-1.5-1.7-2.6-1.4c-1.1,0.3-1.7,1.5-1.4,2.6l0.3,1c0.3,1.1,1.5,1.7,2.6,1.4
		c1.1-0.3,1.7-1.5,1.4-2.6L-657.6,1404.3z"/>
	<path class="st0" d="M-665.3,1400.3l-1.3,0.7c-1,0.5-1.4,1.8-0.9,2.8c0.5,1,1.8,1.4,2.8,0.9l1.3-0.7c1-0.5,1.4-1.8,0.9-2.8
		S-664.3,1399.8-665.3,1400.3z"/>
	<path class="st0" d="M-534.1,1400.3c-0.3,0-0.7,0.1-1.1,0.1c-0.3,0-0.5,0-0.8,0.1c-0.4,0-0.4,0-0.8,0.1c-3.9,0.4-6.3,0.5-8.9,0.6
		c-0.2-3.2-0.7-5.3-2-6.2c-1.4-1-3.4-0.6-6.7,0.5c-2.2,0.7-4.4,1.7-5.2,2.2c-0.8,0.6-1.2,1.7-1.4,3.4c-0.3,0-0.6,0.1-1,0.1
		c-0.1,0-0.1,0-0.1,0c-0.2,0-0.5,0-0.7,0.1c-0.5-4.1-1-6.3-2.1-7.1c-1.8-1.4-7.9-0.7-9.7,0.6c-0.9,0.7-1.6,2.5-2.4,6
		c-0.5,0-0.9-0.1-1.5-0.2l-0.1,0c-0.3,0-0.5-0.1-0.8-0.1c-0.1-2.3-0.3-3.9-0.9-4.6c-0.8-0.9-2.4-1.3-4.4-1.6
		c-2.8-0.4-4.3-0.3-5.1,1.3c-0.4,0.8-1.2,2.4-1.9,4c-3.7-0.4-8.5-0.9-9.3-1.1c-1.1-0.3-2.2,0.4-2.5,1.5c-0.3,1.1,0.4,2.2,1.5,2.5
		c1,0.2,5,0.7,8.7,1.1c-1.2,3.4-1.3,5.3,0.3,6.6c2.3,1.8,10.4,2.1,12.2,0.3c0.9-0.9,1.2-2.7,1.3-5.7c0.1,0,0.1,0,0.2,0l0.1,0
		c0.5,0.1,0.9,0.1,1.3,0.2c-0.9,4.4-1.4,7.4-1.2,8.3c0.3,0.8,0.8,1.3,1.5,1.5c0.3,0.1,0.6,0.1,0.9,0.2c0.4,0,1,0.1,1.7,0
		c1.2,0,2.7-0.2,4.4-0.4c4-0.5,6.7-0.9,7.5-1.6c1.1-0.9,1.2-2.9,0.8-7.6c0.2,0,0.4,0,0.7-0.1c0.1,0,0.1,0,0.1,0c0.2,0,0.3,0,0.4,0
		c0,1.6,0.3,2.8,0.8,3.5c0.9,1.1,3,1.5,6.4,1.8c3.3,0.3,5.6,0.2,6.7-0.6c1-0.7,1.4-2.3,1.5-4.5c2.7-0.1,5.2-0.3,9.2-0.6
		c0.4,0,0.4,0,0.8-0.1c0.3,0,0.6-0.1,0.8-0.1c0.4,0,0.7-0.1,1-0.1c1.1-0.1,2-1.1,1.9-2.2C-531.9,1401-532.9,1400.2-534.1,1400.3z
		 M-583.6,1402.8c0,1.4-0.1,2.6-0.2,3.6c0,0.3-0.1,0.6-0.1,0.8c-0.1,0-0.2,0-0.3,0c-0.7,0.1-1.6,0.1-2.5,0.1c-1.3,0-2.6-0.2-3.3-0.4
		c0-0.1,0-0.3,0.1-0.4c0.2-0.9,0.6-2.1,1.2-3.5c0.3-0.3,0.4-0.7,0.5-1.1c0.4-0.8,0.7-1.7,1.1-2.5c0.2-0.4,0.4-0.8,0.5-1.1
		c0.4,0,0.8,0,1.2,0.1c0.6,0.1,1.2,0.2,1.6,0.3c0,0.2,0,0.4,0.1,0.7C-583.6,1400.2-583.5,1401.5-583.6,1402.8z M-567,1409.7
		c-1.2,0.2-2.7,0.4-4.1,0.6c-1.4,0.2-2.7,0.3-3.7,0.3c0-0.2,0.1-0.4,0.1-0.6c0.3-1.5,0.6-3.4,1-5.2c0.4-2,0.9-3.8,1.3-5.2
		c0.2-0.7,0.4-1.3,0.5-1.7c0.1,0,0.3-0.1,0.4-0.1c0.6-0.1,1.2-0.2,1.9-0.3c0.7-0.1,1.4-0.1,1.9-0.1c0,0,0,0,0.1,0
		c0.1,0.3,0.2,0.8,0.3,1.3c0.2,1.3,0.5,3.1,0.6,5c0.2,1.8,0.3,3.6,0.3,5c0,0.3,0,0.6,0,0.9C-566.6,1409.6-566.8,1409.7-567,1409.7z
		 M-549.9,1405.8c0,0.2,0,0.4-0.1,0.5c-0.2,0-0.4,0-0.6,0c-0.8,0-1.9,0-3.1-0.1c-1.1-0.1-2.2-0.2-3-0.4c-0.1,0-0.2-0.1-0.4-0.1
		c0,0,0-0.1,0-0.1c-0.1-0.6-0.1-1.5,0-2.3c0-0.9,0.1-1.7,0.2-2.3c0-0.1,0-0.2,0.1-0.3c0.7-0.3,2.2-0.9,3.6-1.4c1-0.3,2-0.6,2.7-0.7
		c0,0,0.1,0,0.1,0c0,0.1,0.1,0.3,0.1,0.4c0.2,0.9,0.3,2.1,0.3,3.4C-549.8,1403.7-549.8,1404.9-549.9,1405.8z"/>
	<path class="st0" d="M-436.9,1401.4c-6-1.5-12.6-2.6-19.7-3.2c-0.1-2.8-0.5-4.7-1.4-5.5c-2.1-1.9-8.9-2.5-11.1-0.9
		c-1,0.7-1.7,2.7-2.3,5.7c-2.1,0-4.2-0.1-6.4-0.1c-2.7-6.9-3.9-9.1-5.7-9.1c-1.7,0-3,2-6.9,9.1c-2.2,0.1-3.9,0.2-7.1,0.6l-0.1,0
		c-0.6,0.1-1.2,0.1-1.6,0.2c-0.8-3-3.5-5.3-6.8-5.3c-3.8,0-6.8,3-7,6.7c-4.2,0.5-7.5,1.1-8.8,1.4c-1.1,0.3-1.7,1.5-1.4,2.6
		c0.3,1.1,1.5,1.7,2.6,1.4c1.2-0.3,4.5-0.9,8.7-1.4c1.2,2,3.5,3.4,6,3.4c3,0,5.6-1.9,6.6-4.6c0.6-0.1,1.3-0.1,2.3-0.2l0.1,0
		c1.9-0.2,3.2-0.3,4.4-0.4c-4.6,8.5-5.8,11-5,12.4c0.8,1.4,3.5,1.7,12.2,2.1c7.9,0.4,11.4,0.4,12.5-0.8c1.4-1.4,0.4-4.8-3.1-13.9
		c1.4,0,2.8,0,4.1,0c-0.6,4.3-0.8,7.5-0.1,8.7c1.3,2.4,9.9,4.6,12.6,3.4c2.1-0.9,2.7-4.4,3-10.4c0-0.3,0-0.6,0-0.9
		c6.8,0.6,13,1.7,18.7,3.1c1.1,0.3,2.2-0.4,2.5-1.5C-435.1,1402.8-435.8,1401.7-436.9,1401.4z M-506.3,1402.8
		c-1.6,0-2.9-1.3-2.9-2.9c0-1.6,1.3-2.9,2.9-2.9c1.5,0,2.7,1.1,2.9,2.6c-0.1,0.3-0.2,0.7-0.2,1c0,0.1,0,0.2,0.1,0.3
		C-503.9,1402-505,1402.8-506.3,1402.8z M-478.4,1412.2c-1.9,0-4.4-0.1-7.1-0.2c-2.6-0.1-5.1-0.3-7-0.5c-0.3,0-0.5-0.1-0.7-0.1
		c0.2-0.4,0.4-0.8,0.6-1.3c1-2.1,2.5-4.9,4-7.7c1.6-2.9,3.1-5.6,4.3-7.6c0.2-0.3,0.3-0.5,0.5-0.8c0.1,0.2,0.2,0.4,0.3,0.7
		c0.9,2.1,2.1,4.9,3.2,7.8c1.1,3,2.1,5.8,2.8,8c0.2,0.6,0.4,1.2,0.5,1.7C-477.4,1412.2-477.9,1412.2-478.4,1412.2z M-460.8,1403.1
		c-0.1,2.1-0.3,4-0.6,5.4c-0.1,0.6-0.2,1.1-0.3,1.4c-0.7,0-2.2-0.2-3.7-0.6c-1-0.3-1.9-0.6-2.6-0.9c-0.2-0.1-0.4-0.2-0.6-0.3
		c0,0,0,0,0-0.1c0-0.4,0-1,0-1.7c0.1-1.4,0.3-3.2,0.6-5c0.3-1.8,0.6-3.6,0.9-4.9c0.2-0.7,0.3-1.2,0.5-1.6c0.1,0,0.3-0.1,0.5-0.1
		c0.6-0.1,1.4,0,2.2,0c1.2,0.1,2.3,0.4,2.8,0.6c0,0,0,0,0,0.1c0.1,0.4,0.2,1,0.2,1.8C-460.7,1399-460.7,1401-460.8,1403.1z"/>
</g>
<g>
	<path d="M-572.2,1160.2c-0.6-0.1-1.6-0.2-3.1-0.4c-2.5-0.3-5.4-0.6-8.8-0.8c-2.8-0.2-5.7-0.4-8.9-0.6c-3.6-0.2-6.7,2.6-7,6.2
		c-1.3,20-4.8,33.6-9.8,41.8c-3.1,5.1-6.1,7.3-8.8,7.9c-2.8,0.7-6.6-0.8-8.2-2.8l-10.3,8.4c4.7,5.8,13.6,9.2,21.6,7.3
		c6.2-1.5,12.2-5.8,17.1-14c5.6-9.2,9.4-22.7,11.1-41.2c0.7,0,1.4,0.1,2.1,0.2c1.8,0.1,3.5,0.3,5,0.4l-1.4,33.3l13.3-0.3l1.7-38.6
		C-566.4,1163.7-568.8,1160.7-572.2,1160.2z"/>
	<path d="M-537.9,1206.2c-2.6,0.3-4.3-0.5-6-2.8c-1.1-1.5-1.9-5-2.2-9.4h18.2c3.2,0,6-2.3,6.6-5.5c0.1-0.5,0.2-1.4,0.3-2.5
		c0.4-3.8,0.4-7.8-0.1-11.7c-0.6-4.5-2-8.5-4.5-11.6c-3.2-4.1-8-6.4-13.7-6.2c-6.1,0.1-11.1,3.5-14.5,9c-2.6,4.2-4.3,9.6-5.1,15.8
		c-1.6,11.5,0,24,4.3,30c4.5,6.1,10.8,9,18.2,8.2c6.2-0.7,12.9-3.9,20.2-9.5l-8.1-10.5C-529.9,1203.6-534.5,1205.8-537.9,1206.2z
		 M-539,1169.7c2.7-0.1,4.1,1.6,4.7,6.4c0.2,1.5,0.3,3,0.3,4.6h-11.4C-544,1173.6-541.4,1169.8-539,1169.7z"/>
	<path d="M-501.2,1173.3c2,0.1,4,0.1,6.1,0.1c-0.1,2.3-0.2,4.6-0.2,6.3h13.3c0-3.2,0.4-10.2,0.7-11.5c1-4.2-2.3-8.3-6.7-8.1
		c-5.6,0.2-11,0.1-15.8-0.1c-1-0.1-1.9-0.1-2.7-0.2c-0.5,0-0.8-0.1-0.9-0.1c-4-0.3-7.3,2.8-7.2,6.8l1.4,49.6l13.3-0.4L-501.2,1173.3
		z"/>
	<path d="M-450.1,1185.9c-7.9-2.7-17.4-2.4-25.9,1.3c-14.1,6.2-19.1,15.8-13.3,25.8c3.4,5.9,10,7.2,18.9,5.5
		c5.5-1.1,12.5-3.5,21.1-7.2c0.5,4,1.3,7,2.5,9.5l13-3.6c-0.2-0.5-1.5-3.3-1.7-4.1c-1-3.9-1.4-11.1-1.3-21.9c0-1.8,0-3.4,0.1-6.4
		c0.1-6.3,0.1-8.6,0-11.5c-0.1-9.1-4.2-15.5-11.2-17.9c-5.2-1.8-11.4-1-16.4,1.5c-5.1,2.5-7.8,7-8.3,12.3c-0.3,3.7,0.4,7.6,1.9,11.1
		l12.3-5.1c-1.4-3.3-1.2-5.7,0.1-6.4c2.1-1,4.6-1.4,6.2-0.8c1.4,0.5,2.2,1.8,2.3,5.6c0,2.7,0,5,0,11.2
		C-450.1,1185.1-450.1,1185.5-450.1,1185.9z M-473,1205.5c-2.4,0.5-4.1,0.6-5.1,0.4c-0.3-0.6-0.3-0.9-0.1-1.3
		c0.7-1.4,3.1-3.2,7.6-5.2c5.9-2.6,12.3-2.5,17.1-0.6C-461.9,1202.4-468.3,1204.6-473,1205.5z"/>
	<path d="M-689.1,1210.3c18.4,15.8,51.7,9.4,68-13.1c16.3-22.5,11.2-56.4-10.3-67.3c-20-10.1-46.8-2.5-61.1,17
		C-707.2,1166.8-706.4,1195.4-689.1,1210.3z M-681.7,1154.7c10.6-14.4,30.3-20.1,44.3-13c13.6,6.9,17.4,31.4,5.5,47.7
		c-12,16.5-36.5,21.3-48.6,10.9C-692.1,1190.2-692.6,1169.5-681.7,1154.7z"/>
	<path d="M-653.1,1266.3c0,0.9,0,1.7-0.1,2.5c0,0.2,0,0.5,0,0.7c-5.6,1.3-12.4,1.7-19.1,1.2c-4.1-0.3-7.9-0.9-11-1.7
		c-1.1-0.3-2-0.6-2.7-0.9c0-0.6,0-1.1,0-1.7c0.6-26.9,0.7-36.8,0.7-42.7h-13.3c0,5.8-0.2,15.6-0.7,42.2c-0.6,26.5-0.7,36.7-0.7,42.7
		h13.3c0-4.5,0.1-11.7,0.4-26.8c9.3,2.4,22,3,32.9,1.2c-0.2,11.3-0.3,18.5-0.3,23.8h13.3c0-7.1,0.2-17.7,0.6-37.7
		c0-0.8,0-1.6,0.1-2.5c0.5-24.9,0.7-32,0.7-38.1h-13.3C-652.5,1234.4-652.6,1241.7-653.1,1266.3z"/>
	<path d="M-591.9,1257.6c-3.7,1.8-7.4,3.7-8.4,4.2c-2.1,1.1-4.1,2-5.9,3c-3.1,1.6-5.9,3-8.5,4.4c0.1-3,0.1-6.4,0.2-10.2
		c0.1-5.3,0.1-10.9,0.2-16.6c0-2,0-3.8,0-5.5c0-0.6,0-1.1,0-1.5c0-0.3,0-0.4,0-0.5l-13.3-0.1c0,0.1,0,0.3,0,0.5c0,0.4,0,0.9,0,1.5
		c0,1.6,0,3.5,0,5.4c0,5.6-0.1,11.3-0.2,16.5c-0.2,10.5-0.4,18.2-0.7,21.5c-0.5,5.4,5.4,9.1,10.1,6.2c4.6-2.8,10.4-6,18.2-9.9
		c1.8-0.9,3.7-1.9,5.8-2.9c0.3-0.2,1.1-0.5,2.1-1l-0.2,9.1l13.3,0.3l0.9-37.6l-13.3-1.6L-591.9,1257.6z"/>
	<path d="M-521.9,1250.9c0-4.5,0-9.1,0-13.4c0-1.5,0-2.9,0-4.2c0-1.3,0-1.3,0-1.5l-13.3,0c0,0.3,0,0.3,0,1.5c0,1.2,0,2.6,0,4.2
		c0,4.4,0,8.9,0,13.4c0,0.2,0,0.3,0,0.5l-18.5,0.4c0.2-4,0.3-8.2,0.3-12.1c-4.4,0.7-9.2,1.8-13.3,2.3c-0.2,5.5-0.4,10.9-0.5,16
		c-0.1,1.7-0.1,3.4-0.2,5c-0.3,9.9-0.6,16.8-0.8,19.5l13.3,0.8c0.2-2.8,0.4-9.1,0.8-18.3l19-0.4c0,10.4,0,17,0,17.9l13.3,0.2
		c0-1.3,0-10.5,0-25.5C-521.9,1255.2-521.9,1253.1-521.9,1250.9z"/>
	<path d="M-472.1,1247.8c-8.9-1-17.8,0.6-25.1,4.1c0-0.4,0-0.7,0-1.1c0.1-4.5,0.3-9,0.4-13.4c0-1.5,0.1-2.9,0.1-4.1
		c0-0.4,0-0.7,0-1.1c0-0.3,0-0.3,0-0.4l-13.3-0.5c0,0.1,0,0.1,0,0.4c0,0.5,0,0.7,0,1.1c0,1.2-0.1,2.6-0.1,4.1
		c-0.1,4.4-0.3,8.9-0.4,13.4c-0.1,2.3-0.1,4.5-0.2,6.7c-0.4,15.9-0.6,24.6-0.2,26.7l6.9-1.1c5.3,2.8,12.5,5.1,19.5,6
		c10.9,1.5,20.5-0.2,26.6-6.2C-444.1,1269.3-453,1250-472.1,1247.8z M-467.1,1273c-2.6,2.5-8.3,3.5-15.6,2.6
		c-5.5-0.7-11.1-2.5-14.9-4.5c0-0.9,0-1.9,0.1-2.9c4.5-5,14.2-8.4,24-7.2c4.4,0.5,7.4,2.5,8.6,5
		C-464,1268.2-464.5,1270.6-467.1,1273z"/>
	<path d="M-448.7,1232.7c0.7,4.8,0.9,12.2,0.7,22.7c0,2.7-0.1,5.3-0.2,9.2c-0.4,14.9-0.4,18.3,0.1,21.7l13.1-2.1
		c-0.3-2-0.3-6,0.1-19.2c0.1-4,0.2-6.7,0.2-9.4c0.2-11.2,0-19-0.8-24.8L-448.7,1232.7z"/>
</g>
<ellipse id="Oval-2" class="st0" cx="-574.4" cy="1224.5" rx="14.1" ry="13.7"/>
<path id="Path-68" d="M-567.9,1231.4c1.1-0.3,1.8-1.4,1.6-2.5c-0.3-1.1-1.4-1.8-2.5-1.6c-0.6,0.1-0.6,0.1-0.7-0.6
	c-0.3-1.2-0.1-3.4,0.5-6c0.6-2.6-3.3-3.6-4-1.1c-0.8,2.6-1.8,4.8-2.8,6.2c-0.5,0.6-0.9,1-1.2,1.2c-0.1,0-0.1,0.1-0.2,0.1
	c0-0.1,0-0.3,0-0.6c0-0.6,0.1-1.3,0.4-2.4c0.1-0.5,0.6-2.8,0.7-3.5c0.2-1.1-0.5-2.2-1.6-2.4c-1.1-0.2-2.2,0.5-2.4,1.6
	c-0.1,0.7-0.6,3-0.7,3.5c-0.2,1.3-0.4,2.1-0.4,2.9c-0.1,2.5,0.7,4.2,3,4.9c2,0.6,3.8-0.3,5.3-2.1
	C-572.2,1231.1-570.3,1232-567.9,1231.4z"/>
<g>
	<path class="st0" d="M-483.6,1030.5h-216.6c-1.1,0-2.1,0.9-2.1,2.1c0,1.1,0.9,2.1,2.1,2.1h216.6c1.1,0,2.1-0.9,2.1-2.1
		C-481.6,1031.4-482.5,1030.5-483.6,1030.5z"/>
	<path class="st0" d="M-438.6,1030.5h-29.6c-1.1,0-2.1,0.9-2.1,2.1c0,1.1,0.9,2.1,2.1,2.1h29.6c1.1,0,2.1-0.9,2.1-2.1
		C-436.5,1031.4-437.4,1030.5-438.6,1030.5z"/>
	<path class="st0" d="M-700.3,988.4h96.8c0.4,0.1,0.7,0.1,1,0h163.8c1.1,0,2.1-0.9,2.1-2.1c0-1.1-0.9-2.1-2.1-2.1h-24
		c-0.1-1.6,0-3.5,0.2-5.8c0-0.4,0.1-0.9,0.1-1.3c4.1-0.2,5.8-2.6,6.8-7.8c0.8-3.6,0.8-4,1.4-5.5c2.9-8.2,2.1-12.6-4.1-14.7
		c-3.3-1.1-6.1,0-8,2.8c-1.3,1.9-2.2,4.2-3.3,7.8c-0.1,0.5-0.7,2.2-0.7,2.4c-0.4,1.3-0.6,2.3-0.8,3.2c-1.3,5.9-0.1,10,4.7,11.3
		c-0.1,0.5-0.1,0.9-0.2,1.4c-0.2,2.3-0.3,4.4-0.2,6.2h-14.8c-0.1-0.1-0.2-0.3-0.3-0.4c-1.5-1.4-2.7-4.5-3.5-8.7
		c5.2-1.7,9.6-9.4,8.2-15.2c-1.8-7.3-9.9-11.9-16.8-8c-6.4,3.6-7.4,13.2-3.8,18.8c0.5,0.8,1,1.4,1.5,2c1.8,2,3.3,2.6,6.8,2.7
		c0.6,3.5,1.5,6.5,2.8,8.7h-23.4c0-0.3,0-0.7,0.1-1.1c0.1-1.3,0.1-3,0.2-4.9c0-1.2,0.1-2.4,0.1-3.6c2.5-0.6,4.8-2,6.1-4.1
		c3-5.1,3.2-10.8-0.7-13.7c-4.2-3.1-10.5-1-13.5,4c-3.2,5.3-3.6,8.8-0.3,12c1.1,1.1,2.7,1.7,4.3,2c0,1.1-0.1,2.3-0.1,3.3
		c-0.1,1.9-0.2,3.6-0.2,4.9c0,0.5-0.1,0.9-0.1,1.3h-16.5c-0.1-1.4,0-3.2,0-5.3c0-1.2,0.1-2.4,0.2-3.6c3.9-0.6,6.6-3.8,7.9-9.5
		c1.8-7.7,0.3-11.2-5.8-11.9c-3-0.3-5.3,1-7,3.5c-1.1,1.7-1.8,3.6-2.7,6.9c-1.2,4.6-1.3,4.7-1.1,6.2c0.2,2.4,1.8,4,4.5,4.6
		c-0.1,1.2-0.1,2.5-0.2,3.6c-0.1,2.1-0.1,3.9,0,5.5h-9.8c0-0.2-0.1-0.3-0.1-0.5l-13.2-31.9l1.6-19.7c0.2,0.2,0.3,0.4,0.5,0.6
		c0.2,0.3,0.4,0.5,0.6,0.8c2.4,3.2,3.9,4.8,5.1,5.2c1.7,0.7,2.7-0.1,4.2-2c0.7-0.9,1.6-2.1,2.7-3.9c0.1-0.2,0.3-0.4,0.4-0.6
		c2.4-3.7,3.1-4.8,3.3-5c1.5-1,8.9-1.9,11.3-1c1.1,0.4,2.3-0.2,2.7-1.2c0.4-1.1-0.2-2.3-1.2-2.7c-3.6-1.3-12.3-0.2-14.9,1.5
		c-1,0.7-1.2,0.9-4.6,6.2c-0.1,0.2-0.3,0.4-0.4,0.6c-1.1,1.6-1.8,2.7-2.4,3.5c0,0,0,0-0.1,0.1c-0.1-0.1-0.2-0.2-0.3-0.3
		c-0.7-0.7-1.5-1.7-2.4-2.9c-0.2-0.2-0.4-0.5-0.6-0.7c-0.9-1.2-1.8-2.4-2.7-3.6c-0.2-0.3-0.4-0.6-0.6-0.9c-0.2-1.1-1.3-1.9-2.4-1.6
		l-0.2,0c0,0,0,0,0,0l-1.9,0.4c2.4-4.6,2.9-9,0.8-15.2c-0.4-1.1-1.6-1.7-2.6-1.3c-1.1,0.4-1.7,1.6-1.3,2.6c1.9,5.4,1.3,8.8-0.9,12.7
		c0,0-0.9,1.4-1.4,2.3l-7.3,1.5c-0.3,0.1-0.7,0.2-0.9,0.4c-4.2,2.4-11.9,12.1-12.3,15.4c-0.2,1.7,0.8,3.1,2.8,4.8
		c0.5,0.4,1.1,0.9,1.8,1.4c0.3,0.2,2,1.5,2.4,1.8c0.2,0.1,0.4,0.3,0.5,0.4c-0.1,0.3-0.3,0.5-0.5,0.8c-0.1,0.1-0.2,0.2-0.2,0.2
		c-0.7-0.3-1.6-0.2-2.2,0.3c-0.9,0.8-1,2.1-0.2,2.9c1.7,2,4,1.2,5.7-0.7c0-0.1,0.1-0.1,0.1-0.2c0.3,0.4,0.5,0.7,0.8,1.1
		c0,0.1,0.1,0.1,0.1,0.1c0,0,0,0,0,0c0.1,0.8,0.3,1.8,0.4,2.8c0.5,4.3,0.7,8.7,0.4,12.8c-0.4,5.3-1.5,9.5-3.6,12.1
		c-0.2,0.2-0.3,0.4-0.3,0.6h-21.6c1-3.6,1.4-6.5,1.2-9.3c4.2-2.2,5.1-6.2,4-12.1c-1-5.2-6.7-10.6-10.8-9.9c-4,0.7-7.4,8.7-6.8,14
		c0.6,5.5,4.3,9.7,9.4,9.3c0,2.4-0.4,4.9-1.4,8.1h-26.3c-0.2-1.6-0.4-3.3-0.3-5c1.7-0.2,3.2-1,4.5-2.3c1.6-1.7,2.7-3.9,3.6-7
		c0.2-0.6,0.4-1.3,0.5-2.1c0.1-0.4,0.5-1.9,0.5-1.9c1.5-6-0.4-10.5-5.1-11.7c-4.4-1.2-8.6,1.5-10.9,6.7c-0.1,0.2-0.5,1-0.5,1.2
		c-0.2,0.5-0.4,0.9-0.6,1.3c-0.7,1.6-1.2,3-1.6,4.4c-1.4,5.4,0.1,9.6,5.4,11.1c0,1.8,0,3.6,0.3,5.3h-14c0.1-1.5,0.1-3.2,0-5.2
		c0-0.7-0.1-1.5-0.1-2.3c1.4-0.6,2.5-1.7,3.3-3.2c0.8-1.6,1.3-3.2,1.7-6c0.7-4.5-3.3-8.2-7.8-8.7c-4.5-0.5-7.2,3-7.5,9.3
		c-0.3,6.1,1.4,8.7,6.1,9.1c0,0.7,0.1,1.3,0.1,2c0.1,2,0.1,3.7,0,5.1h-20.1c-0.5-1.4-0.9-2.9-1.2-4.6c-0.3-1.5-0.6-3.1-0.8-4.8
		c2.3-0.9,3.8-2.6,4.7-4.8c0.8-2.1,0.9-4.2,0.7-7.6c-0.3-6-3.5-11.2-8.2-10.9c-4.6,0.3-7,5.5-7.5,12.5c-0.3,3.8-0.2,6,0.6,7.9
		c1,2.5,3,3.7,5.7,3.7c0.2,1.6,0.5,3.2,0.8,4.8c0.3,1.3,0.6,2.5,0.9,3.7h-22.7c-1.1,0-2.1,0.9-2.1,2.1
		C-702.3,987.5-701.4,988.4-700.3,988.4z M-467,966.2c0.2-0.9,0.4-1.8,0.8-3c0-0.1,0.6-1.9,0.7-2.4c1.8-6.4,3.4-8.7,5.9-7.8
		c3.5,1.2,3.8,3.1,1.6,9.4c-0.4,1-0.7,2.1-0.9,3.2c-0.1,0.5-0.2,0.9-0.3,1.5c0,0.2-0.2,1.1-0.3,1.3c-0.6,2.8-1,4-2.2,4.4
		c0,0,0,0,0,0c0.2-1.3,0.4-2.6,0.7-3.7c0.1-0.4,0.2-0.8,0.2-1.1c0-0.2,0.1-0.3,0.1-0.4c0.2-1.1-0.5-2.2-1.6-2.5
		c-1.1-0.2-2.2,0.5-2.5,1.6c0,0.1,0,0.2-0.1,0.4c-0.1,0.3-0.1,0.7-0.2,1.1c-0.2,1.2-0.5,2.5-0.7,3.9c0,0.1,0,0.2,0,0.3
		C-467.5,971.7-467.7,969.8-467,966.2z M-493.2,970.1c-0.3-0.4-0.7-0.8-1-1.4c-2.4-3.9-1.8-10.7,2.3-13c4.3-2.4,9.6,0.5,10.7,5.4
		c0.9,3.5-1.9,8.5-4.7,10c-0.1-0.5-0.1-1-0.1-1.5c-0.1-1-0.1-2-0.1-2.3c0-1.1-0.9-2.1-2.1-2.1c-1.1,0-2.1,0.9-2.1,2.1
		c0,0.4,0.1,1.5,0.1,2.6c0,0.5,0.1,1,0.2,1.6C-491.8,971.3-492.4,971-493.2,970.1z M-514.3,962.9c1.9-3.1,5.5-4.3,7.5-2.8
		c1.8,1.3,1.7,4.8-0.4,8.3c-0.5,0.8-1.3,1.5-2.3,1.9c0,0,0,0,0,0c0-1.1-0.9-2.1-2-2.1c-1.1,0-2.1,0.9-2.1,2c0,0.1,0,0.3,0,0.5
		c-0.6-0.2-1.2-0.4-1.6-0.8C-516.8,968.3-516.6,966.7-514.3,962.9z M-535,970.2c-0.1-0.8,0-1.1,1-4.8c0,0,0,0,0-0.1
		c1.5-5.6,2.8-7.5,5.2-7.2c3.1,0.3,3.5,1.2,2.2,6.8c-0.8,3.4-1.9,5.3-3.6,6.1c0-0.3,0-0.5,0.1-0.8c0-0.2,0-0.3,0-0.3
		c0.1-1.1-0.7-2.2-1.9-2.3c-1.1-0.1-2.2,0.7-2.3,1.9c0,0.1,0,0.2,0,0.3c0,0.3-0.1,0.6-0.1,0.9c0,0.1,0,0.2,0,0.3
		C-534.9,970.8-535,970.6-535,970.2z M-608.3,966.5c-0.4-3.4,2.1-9.3,3.4-9.5c0.5-0.1,1.9,0.5,3.1,1.8c1.5,1.4,2.6,3.2,2.9,4.8
		c0.6,3.3,0.5,5.4-0.7,6.7c-0.2-0.9-0.5-1.8-0.8-2.8c-0.3-1.1-1.5-1.7-2.6-1.3s-1.7,1.5-1.3,2.6c0.4,1.2,0.7,2.2,0.9,3.3
		C-606,972.1-607.9,969.8-608.3,966.5z M-636.5,968.9c0.3-1.1,0.7-2.4,1.3-3.8c0.2-0.4,0.3-0.8,0.6-1.3c0.1-0.1,0.4-0.9,0.5-1.2
		c1.5-3.4,3.9-4.9,6-4.4c2.2,0.6,3.1,2.7,2.1,6.7c0,0-0.3,1.4-0.5,1.9c-0.2,0.7-0.3,1.3-0.5,1.9c-1,3.4-2.1,5.4-3.7,6.1
		c0.3-1.9,0.6-4,1.2-6.3c0.3-1.1-0.4-2.2-1.6-2.5s-2.2,0.4-2.5,1.6c-0.6,2.5-1,4.8-1.3,6.9C-636.9,973.8-637.3,972-636.5,968.9z
		 M-655.1,968.4c0.2-4.3,1.2-5.6,2.9-5.4c2.3,0.3,4.4,2.2,4.1,4c-0.3,2.2-0.7,3.7-1.3,4.7c0-0.3,0-0.6-0.1-0.8
		c0-0.3-0.1-0.6-0.1-0.9c0-0.2,0-0.3,0-0.3c-0.1-1.1-1.1-2-2.3-1.8s-2,1.1-1.8,2.3c0,0.1,0,0.2,0,0.3c0,0.2,0.1,0.5,0.1,0.8
		c0.1,0.6,0.1,1.2,0.2,1.8C-655.1,972.8-655.3,971.9-655.1,968.4z M-681.1,970.5c-0.5-1.2-0.5-3-0.3-6.1c0.4-5.1,2-8.6,3.6-8.7
		c1.7-0.1,3.6,2.9,3.9,7c0.2,4.1-0.1,6.5-1.6,7.7c-0.1-0.9-0.1-1.9-0.1-2.7c0-0.6,0-1,0-1.3c0-1.2-0.9-2.1-2.1-2.1
		c-1.1,0-2.1,0.9-2.1,2.1c0,0.3,0,0.8,0,1.4c0,1,0.1,2.1,0.2,3.2c0,0.2,0,0.4,0,0.6C-680.5,971.6-680.9,971.2-681.1,970.5z
		 M-562.1,951c-0.7,0.2-1.4,0.4-2.2,0.6c-1,0.3-2.1,0.5-3.1,0.6c-0.1,0-0.1,0-0.2,0c-0.1,0-0.2,0-0.3,0.1c-1,0.1-2,0.2-2.9,0.3
		c-0.7,0-1.3,0-1.9,0c-1.2-1.7-1.9-3.5-2.3-5.5c-0.7-4,0.1-8.3,1.9-12.6c0.5-1.1,1-2.2,1.5-3.1c0.1-0.1,0.1-0.2,0.2-0.4l11.2-2.3
		L-562.1,951z M-581,944.6c-0.6-0.5-1-0.9-1.2-1.2c0,0-0.1-0.1-0.1-0.1c0.3-0.8,1.8-3.2,3.7-5.6c-0.7,2.8-1,5.5-0.8,8.2c0,0,0,0,0,0
		C-580,945.4-580.5,945-581,944.6z M-570.9,958.3c-0.1-0.5-0.1-1-0.2-1.5c0.1,0,0.3,0,0.4,0c0.6,0,1.2-0.1,1.8-0.1
		c0.3,0.9,0.7,1.9,1.2,2.8c0.5,0.8,1,1.6,1.7,2.3c0.8,0.8,2.1,0.9,2.9,0.1c0.8-0.8,0.9-2.1,0.1-2.9c-0.4-0.4-0.7-0.9-1-1.4
		c-0.3-0.4-0.5-0.9-0.6-1.4c0.5-0.1,1-0.2,1.4-0.3c0.7-0.2,1.4-0.4,2.1-0.6l12.1,29.2h-24.5c1.8-3.2,2.8-7.4,3.2-12.5
		C-570.2,967.5-570.4,962.8-570.9,958.3z"/>
	<path class="st0" d="M-690.7,997.1c-1.1,0.4-1.7,1.5-1.3,2.6l0.5,1.7c0.4,1.1,1.5,1.7,2.6,1.3s1.7-1.5,1.3-2.6l-0.5-1.7
		C-688.5,997.3-689.6,996.7-690.7,997.1z"/>
	<path class="st0" d="M-474.6,1013.7c4.2,0,6.4,0.7,7.1,1.4c0.3,0.4,0.2,1.4-0.8,3.1c-0.6,1-0.2,2.3,0.8,2.8
		c0.9,0.5,1.9,0.3,2.6-0.4c0.3,0.7,1,1.2,1.9,1.2c3.1,0,7.3-3.3,9.2-7.8c0.3,0.1,0.7,0.1,1,0.1c1.3,1.6,1.5,4.7-0.3,7.6
		c-0.6,1-0.3,2.3,0.7,2.9c1,0.6,2.3,0.3,2.9-0.7c2.6-4.3,2.3-9,0.3-12c0.3-0.7,0.7-1.5,1.3-2.7c0.1-0.2,0.2-0.4,0.3-0.7
		c0.4-0.9,0.7-1.8,1.1-2.7c3.3,0,7.2-0.8,9.3-2.3c0.9-0.7,1.2-2,0.5-2.9s-2-1.2-2.9-0.5c-1.5,1-4.8,1.6-7.4,1.5c0,0-0.1,0-0.1-0.1
		c-0.4-0.2-0.9-0.2-1.3-0.1c-0.2,0-0.4-0.1-0.5-0.1c0.4-0.3,0.7-0.7,0.8-1.2l0.4-2.1c0.2-1.1-0.5-2.2-1.6-2.4
		c-1.1-0.2-2.2,0.5-2.4,1.6l-0.4,2.1c-0.2,0.8,0.2,1.6,0.8,2c-1.8,0-4.4-0.4-5.8-1.2c-0.2-0.1-0.5-0.2-0.7-0.2
		c-0.5-0.2-1.1-0.1-1.7,0.2c-1.9,1.2-6.4,1.7-11,1.4c0.2-0.3,0.3-0.6,0.4-1l0.2-2.3c0.1-1.1-0.7-2.1-1.9-2.2
		c-1.1-0.1-2.2,0.7-2.3,1.9l-0.2,2.3c0,0.5,0.1,0.9,0.3,1.3c-0.2,0-0.5,0.1-0.7,0.1c-0.2,0-0.3-0.1-0.5-0.1c-0.3,0-0.6,0.1-0.9,0.2
		c-3.8,0.2-7.6-0.3-8.5-1.2c-0.8-0.8-1.9-0.8-2.8-0.2c-0.3,0.1-0.6,0.2-0.9,0.5c-2.1,2-5.8,2.4-9.2,1.7c0.2-0.3,0.4-0.7,0.5-1.1
		l0.1-1.4c0.1-1.1-0.7-2.2-1.8-2.3c-1.1-0.1-2.2,0.7-2.3,1.8l-0.1,1.4c0,0.4,0,0.7,0.2,1c-0.1,0-0.1,0-0.1,0c-0.2,0-0.4,0-0.5,0
		c-3,0-7.4-1.4-8.4-2.8c-0.7-0.9-2-1.1-2.9-0.5c-0.2,0.1-0.3,0.3-0.4,0.5c-1.1,0.7-3.7,1.6-6.1,2.2c-0.2,0-0.3,0-0.5,0
		c-0.1,0-0.2,0.1-0.3,0.1c0,0,0-0.1,0-0.1l0.6-1.9c0.3-1.1-0.3-2.3-1.4-2.6c-1.1-0.3-2.3,0.3-2.6,1.4l-0.6,1.9
		c-0.2,0.6-0.1,1.3,0.3,1.8c-0.8-0.1-2-0.4-3.5-0.8c-0.6-0.2-1.2-0.4-1.8-0.6c-1-0.3-1.9-0.7-2.8-1c-0.3-0.1-0.6-0.2-0.9-0.3
		c-0.2-0.1-0.3-0.1-0.3-0.1c-0.6-0.2-1.2-0.2-1.8,0.1c-0.5-0.5-1.3-0.7-2-0.4c-0.1,0-0.3,0.1-0.6,0.2c-0.4,0.1-0.9,0.3-1.5,0.5
		c-1.6,0.5-3.1,1-4.6,1.5c-0.3,0.1-0.6,0.2-0.9,0.3c-1,0.3-1.8,0.6-2.6,0.8c-0.3,0-0.6,0-0.9,0.2c-0.1,0-0.2,0.1-0.3,0.2
		c-0.3,0.1-0.6,0.2-0.9,0.2c0.2-0.3,0.3-0.6,0.3-1l0.1-2.1c0.1-1.1-0.8-2.1-2-2.2c-1.1-0.1-2.1,0.8-2.2,2l-0.1,2.1
		c0,0.6,0.2,1.1,0.6,1.5c-0.5-0.1-1-0.2-1.6-0.4c-0.6-0.2-1.3-0.4-2-0.6c-0.7-0.3-1.4-0.5-2.1-0.8c-0.1,0-0.1-0.1-0.2-0.1
		c-0.4-0.3-1-0.5-1.5-0.5c-0.5,0-0.9,0.2-1.2,0.4c-1.9,0.8-4.7,1.2-7.5,1.3c-0.2-0.1-0.5-0.1-0.7-0.1c-0.1,0-0.2,0-0.4,0.1
		c0.1-0.2,0.2-0.3,0.2-0.5l0.4-1.5c0.3-1.1-0.4-2.2-1.5-2.5c-1.1-0.3-2.2,0.4-2.5,1.5l-0.4,1.5c-0.1,0.4-0.1,0.8,0,1.2
		c-0.4-0.1-0.9-0.3-1.4-0.4c-0.5-0.2-1.1-0.4-1.7-0.7c-0.9-0.4-1.7-0.7-2.6-1.1c-0.2-0.1-0.4-0.2-0.6-0.3c-0.3-0.2-0.7-0.4-1.1-0.4
		c-0.5-0.1-1.1,0.1-1.5,0.4c-3.1,1.4-6.7,2.3-9.5,2.2c0.5-0.4,0.7-1,0.7-1.7l-0.2-2.3c-0.1-1.1-1.1-2-2.2-1.9s-2,1.1-1.9,2.2
		l0.2,2.3c0,0.3,0.1,0.5,0.2,0.7c-0.7-0.2-1.4-0.5-2.1-0.8c-0.7-0.3-1.4-0.7-2-1c-0.1-0.1-0.2-0.1-0.3-0.1c0,0,0-0.1-0.1-0.1
		c-0.8-0.8-2.1-0.9-2.9-0.1c-1.7,1.6-4.2,2.2-8.6,2.4c0.2-0.3,0.3-0.6,0.4-0.9l0.3-1.6c0.2-1.1-0.6-2.2-1.7-2.4
		c-1.1-0.2-2.2,0.6-2.4,1.7l-0.3,1.6c-0.1,0.5,0,1,0.3,1.4c-0.8-0.1-1.7-0.3-2.8-0.5c-0.6-0.1-1.2-0.3-1.8-0.4
		c-1.1-0.3-2.3-0.6-3.4-0.8c-0.4-0.1-0.7-0.2-1-0.3c-0.2,0-0.3-0.1-0.4-0.1c-0.7-0.2-1.5,0-2,0.5c-0.2,0-0.4,0.1-0.6,0.2
		c-0.1,0-0.2,0.1-0.5,0.3c-0.4,0.2-0.8,0.4-1.3,0.7c-1.4,0.7-2.9,1.4-4.4,2.1c-1.4,0.6-2.7,1.1-4,1.5c-0.6,0.2-1.2,0.4-1.8,0.6
		c-0.2,0-0.4,0.1-0.6,0.2c-0.4,0.1-0.8,0.2-1.1,0.3c0.7-0.4,1.1-1.2,1-2l-0.3-2.4c-0.1-1.1-1.2-1.9-2.3-1.8s-2,1.2-1.8,2.3l0.3,2.4
		c0.1,0.9,0.8,1.6,1.7,1.8c-4.1,0.5-7.7-1.8-9.4-4.8c0-0.1-0.1-0.1-0.2-0.2c-0.1-0.4-0.2-0.8-0.5-1.1c-0.8-0.8-2.1-0.9-2.9-0.1
		l-6.5,6.3c0,0,0,0,0,0c-0.3-0.1-0.7-0.1-1,0l-0.6-0.1c0.6-0.3,1.1-0.8,1.2-1.5l0.4-2.4c0.2-1.1-0.6-2.2-1.7-2.4
		c-1.1-0.2-2.2,0.6-2.4,1.7l-0.4,2.4c-0.1,0.8,0.2,1.5,0.7,1.9l-0.8-0.1c-0.1-0.1-0.3-0.1-0.4-0.1l-8-5.4c-0.3-0.2-0.7-0.3-1.1-0.4
		c-0.1-0.1-0.1-0.2-0.2-0.2c-0.9-0.7-2.2-0.6-2.9,0.3c-1.1,1.4-4.1,3.2-7.5,4.1c-4.3,1.2-8.8,1.1-12.8-0.6c-1.1-0.4-2.3,0-2.7,1.1
		c-0.4,1.1,0,2.3,1.1,2.7c2.7,1.2,5.6,1.7,8.5,1.7c0.1,0.7,0.2,1.5,0.3,2.6l0,0.1c0.1,1,0.2,2,0.3,3c0,0.1,0,0.3,0,0.3
		c-0.2,0.2-0.3,0.4-0.5,0.6c-0.8,0.9-1.7,1.8-2.5,2.7c-1,1-2,1.8-2.8,2.4c-0.5,0.3-0.9,0.6-1.3,0.8c-1,0.5-1.5,1.7-1,2.8
		c0.5,1,1.7,1.5,2.8,1c0.6-0.3,1.2-0.7,1.9-1.1c1.1-0.7,2.2-1.7,3.4-2.8c1-0.9,1.9-1.9,2.8-2.9c0.1-0.2,0.3-0.3,0.4-0.4
		c0.1,0,0.1,0,0.2,0c-0.4,1.1-0.9,2.1-1.3,3.1c-0.6,1.3-1.3,2.5-1.9,3.3c-0.7,0.9-0.5,2.2,0.4,2.9s2.2,0.5,2.9-0.4
		c0.8-1.1,1.6-2.5,2.3-4c0.7-1.4,1.3-2.9,1.9-4.5c0.2-0.5,0.4-1,0.5-1.5c0.1-0.3,0.2-0.5,0.2-0.6c0-0.1,0.1-0.3,0.1-0.4
		c0,0,0,0,0-0.1c0-0.2,0-1.2-0.2-5.1c0-0.1,0-0.1,0-0.2c0-1-0.1-2.1-0.1-3.1c2.8-1,5.2-2.4,6.9-3.8l7.5,5.1l-0.9,6.4
		c0,0,0,0-0.1,0.2c-0.1,0.2-0.2,0.3-0.3,0.5c-0.3,0.6-0.6,1.1-0.8,1.6c0,0,0,0,0,0.1c-0.1,0.2-0.2,0.4-0.3,0.5
		c-0.3-0.1-0.5-0.3-0.8-0.4c-0.1,0-0.1,0-0.1-0.1c-0.6-0.3-1.2-0.6-1.8-1c-0.2-0.1-0.4-0.2-0.6-0.3c-0.2-0.1-0.2-0.1-0.2-0.1
		c-1-0.6-2.3-0.2-2.8,0.8c-0.6,1-0.2,2.3,0.8,2.8c0,0,0,0,0.2,0.1c0.2,0.1,0.4,0.2,0.6,0.3c0.6,0.3,1.2,0.7,1.8,1
		c0.1,0,0.1,0,0.1,0.1c0.8,0.4,1.4,0.7,1.9,1c0.3,0.1,0.5,0.3,0.7,0.3c0.1,0.1,0.2,0.1,0.3,0.1c0.1,0,0.2,0.1,0.3,0.1
		c0.5,0.1,0.9,0.1,1.5-0.3c0.5-0.4,0.5-0.4,0.6-0.5c0.1-0.1,0.1-0.1,0.1-0.2c0-0.1,0.1-0.2,0.2-0.3c0.1-0.1,0.2-0.3,0.3-0.6
		c0.2-0.4,0.5-1,0.8-1.6c0,0,0,0,0-0.1c0.2-0.3,0.3-0.7,0.5-1c0.1,0,0.2,0,0.3,0.1c0.1,0,0.3,0,0.4,0.1c0.2,0,0.5,0.1,0.7,0.1l1.5,4
		c0.5,1.2,2,1.7,3.1,1l6.3-4c1-0.6,1.2-1.9,0.6-2.9s-1.9-1.2-2.9-0.6l-4.1,2.6l-0.7-1.8c0-0.1,0-0.2,0-0.3c0,0.2,0,0.2,0,0.3
		c0-0.1,0-0.1,0-0.2c0-0.2,0.1-0.5,0.2-1c0.2-0.7,0.4-1.7,0.6-2.9c0-0.1,0-0.1,0-0.1c0.2-0.8,0.4-1.6,0.5-2.4
		c0.3-0.1,0.6-0.3,0.9-0.5l5.5-5.2c2.1,2.8,5.2,4.9,8.9,5.4c0,0,0,0,0,0c-0.1,0.7-0.3,1.3-0.4,2c-0.2,1.2-0.3,2.2-0.2,3
		c0.1,1.5,0.4,2.6,1.7,3.3c1.1,0.5,2.3,0.4,3.5-0.1c0.6-0.2,1.1-0.5,1.7-0.9c0.2-0.1,0.4-0.3,0.6-0.4c0.2,0.6,0.3,1.1,0.5,1.7
		c0.8,2.6,1.6,4.3,2.7,5.3c0.9,0.7,2.2,0.6,2.9-0.3c0.7-0.9,0.6-2.2-0.3-2.9c-0.2-0.2-0.8-1.5-1.4-3.3c-0.2-0.7-0.4-1.5-0.7-2.3
		l0.1,0c0.3,0.5,0.7,0.9,1.1,1.4c1,1.2,2.1,2.1,3.1,2.7c1,0.5,2.3,0.2,2.8-0.9c0.5-1,0.2-2.3-0.9-2.8c-0.5-0.3-1.2-0.9-1.9-1.7
		c-0.4-0.5-0.8-1.1-1.2-1.6c-0.2-0.3-0.4-0.6-0.5-0.7c-0.5-0.9-1.6-1.2-2.6-0.8l-2,0.9l0.1-2.5c0.3-0.1,0.5-0.2,0.8-0.3
		c1.4-0.5,2.8-1,4.2-1.7c1.6-0.7,3.2-1.4,4.7-2.2c0.5-0.3,1-0.5,1.4-0.7c0.3-0.1,0.4-0.2,0.5-0.3c0.1,0,0.1-0.1,0.2-0.1
		c0.2,0.1,0.5,0.1,0.7,0.2c1.1,0.3,2.3,0.6,3.5,0.9c0.7,0.2,1.3,0.3,1.9,0.4c0.2,0,0.4,0.1,0.6,0.1c-0.1,0.5-0.3,1-0.4,1.5
		c0,0.1,0,0.1-0.1,0.3c-0.3,1.1-0.6,2-0.7,2.6c-0.1,0.4-0.2,0.7-0.2,0.9l-6.3,8.3c-0.7,0.9-0.5,2.2,0.4,2.9c0.9,0.7,2.2,0.5,2.9-0.4
		l5.9-7.8c0.1,0,0.3,0.1,0.5,0.1l-2.7,7.2c-0.4,1.1,0.1,2.3,1.2,2.7s2.3-0.1,2.7-1.2l3.4-9c0.2-0.2,0.3-0.4,0.4-0.7l2.2-6.8
		c3.3-0.3,5.6-0.9,7.6-2.3c0.6,0.3,1.3,0.7,2,1c0.6,0.3,1.2,0.5,1.8,0.7l-0.7,5.7c-0.5,0.6-2,1.5-3.9,2.3c-1.1,0.5-2.3,0.9-3.4,1.3
		c-0.4,0.1-0.8,0.3-1.1,0.4c-0.2,0.1-0.3,0.1-0.4,0.1c-1.1,0.3-1.7,1.5-1.4,2.6c0.3,1.1,1.5,1.7,2.6,1.4c0.1,0,0.3-0.1,0.5-0.2
		c0.4-0.1,0.8-0.3,1.2-0.4c1.3-0.4,2.5-0.9,3.7-1.5c2.2-1,3.9-1.9,5-3l0.1,0c-0.5,1.4-1.1,2.8-1.8,4.1c-0.5,0.9-1,1.7-1.5,2.5
		c-0.7,0.9-0.5,2.2,0.4,2.9s2.2,0.5,2.9-0.4c0.7-0.9,1.3-1.9,1.9-3c0.9-1.6,1.6-3.3,2.1-5c0.3-1,0.6-1.8,0.7-2.3c0-0.1,0-0.2,0-0.2
		l1.3-6.4c2.6-0.3,5.3-1.1,7.8-2.2c0.1,0,0.1,0.1,0.2,0.1c0.9,0.4,1.8,0.8,2.7,1.2c0.6,0.3,1.3,0.5,1.9,0.7c0.1,0,0.2,0.1,0.3,0.1
		c-0.3,0.8-0.6,1.6-0.8,2.4c0,0.1,0,0.1,0,0.1c-0.9,2.7-1.3,3.9-1.5,4.5c-0.2,0.4-0.4,0.9-0.7,1.5c-0.5,1.5-0.9,2.9-0.8,4.4
		c0.2,3.2,2.2,5.6,6,6.5c1.1,0.3,2.2-0.4,2.5-1.5c0.3-1.1-0.4-2.2-1.5-2.5c-2.1-0.5-2.8-1.3-2.9-2.7c0-0.8,0.1-1.6,0.5-2.5
		c0,0,0.1,0,0.1,0c0.1,0,0.1,0,0.2,0c0.5,0.6,1.1,1.1,1.6,1.5c3,2.2,6.2,2,9.2,0.3c0.8-0.5,1.4-0.9,1.8-1.3c0.8-0.8,0.9-2.1,0.1-2.9
		c-0.8-0.8-2.1-0.9-2.9-0.1c-0.2,0.1-0.5,0.4-1,0.7c-1.6,0.9-3.1,1-4.6-0.1c-0.1-0.1-0.2-0.2-0.3-0.3c0.1-0.1,0.1-0.3,0.2-0.4
		c0.4-0.8,0.9-1.9,1.5-3.2c0.6-1.4,1.1-2.5,1.4-3.4c3-0.1,5.9-0.5,8.2-1.5c0,0,0,0,0,0c0.7,0.3,1.5,0.6,2.3,0.9
		c0.8,0.3,1.6,0.5,2.3,0.7c0.7,0.2,1.4,0.3,2,0.4l-0.5,7.8c-0.1,0.2-0.2,0.4-0.2,0.7c-0.1,1.1,0.7,2.2,1.8,2.3l3.8,0.4l-0.1,4.6
		c0,1.1,0.9,2.1,2,2.1c1.1,0,2.1-0.9,2.1-2l0.1-6.5c0-0.7-0.4-1.4-0.9-1.8l1.5-0.5c0.3,0.5,0.6,1.1,0.9,1.6c1.2,1.8,2.3,3.1,3.7,3.7
		c0.2,0.1,0.5,0.2,0.7,0.2c1.1,0.2,2.2-0.5,2.5-1.6c0.2-1.1-0.5-2.2-1.6-2.5c-0.4-0.2-1.1-0.9-1.8-2.1c-0.4-0.6-0.7-1.3-1.1-1.9
		c-0.2-0.4-0.3-0.7-0.4-0.8c-0.4-1-1.5-1.5-2.6-1.1l-1.5,0.5c0.3-1.5,0.4-3,0.1-4.5c0.4-0.1,0.9-0.3,1.3-0.4
		c0.3-0.1,0.6-0.2,0.9-0.3c1.5-0.5,3.1-1,4.7-1.5c0.5-0.2,1.1-0.3,1.5-0.5c0.3-0.1,0.5-0.2,0.6-0.2c0.1,0,0.2-0.1,0.3-0.1
		c0.2,0.2,0.4,0.3,0.6,0.4c0.1,0,0.2,0.1,0.3,0.1c0.3,0.1,0.6,0.2,0.9,0.4c1,0.4,2,0.7,3,1.1c0.5,0.2,1,0.3,1.5,0.5
		c-1.9,2.5-2.6,5.2-1.1,7.8c0.3,0.6,0.7,1.1,1.2,1.6c0.1,0.1,0.2,0.1,0.2,0.2c-1.6,2.9-2.2,6.7-0.5,9.6c0.6,1,1.9,1.3,2.8,0.7
		s1.3-1.9,0.7-2.8c-1-1.7-0.1-4.9,1.3-6.7c0.1,0,0.3,0,0.4,0c0,1.1,0.1,2.1,0.2,3.1c0.3,2.2,0.9,3.9,2,5.3c0.7,0.9,2,1,2.9,0.3
		c0.9-0.7,1-2,0.3-2.9c-0.5-0.6-0.9-1.7-1.1-3.2c-0.2-1.1-0.2-2.2-0.2-3.6c0.3-0.3,0.7-0.8,1-1.3c1.1-1.9,1.6-4.5,1.3-8
		c2-0.6,4-1.3,5.5-2c2.1,1.6,5.5,2.7,8.6,3c0,0.7,0,1.5,0,2.2c0,1.2,0.1,2.2,0.2,3c0.1,0.5,0.2,1,0.3,1.4c-1.7,2.5-4.1,2.8-5.4,1.3
		c-0.8-0.9-2.1-1-2.9-0.2s-1,2.1-0.2,2.9c3.2,3.6,9,3,12.2-2.1c0.4,0,0.8,0,1.3-0.1c0.1,0,0.3,0,0.4,0c0.2,0.4,0.4,1.1,0.3,1.8
		c-0.1,1.3-1,2.5-2.9,3.1c-1.1,0.4-1.7,1.6-1.3,2.6s1.6,1.7,2.6,1.3c3.4-1.2,5.4-3.7,5.7-6.6c0.2-2.2-0.6-4.4-2.1-5.7
		c0.1-0.6,0.1-1.3,0.2-2c0.1-0.6,0.1-1.3,0.2-1.9c3.1,0.1,6.2-0.7,8.6-2.6c2.1,1,5.3,1.5,8.7,1.5l-0.1,3.8c-3.4,0.4-5.6,1.4-6.8,3.3
		c-1.3,2-1,4.3,0.1,7.3c0.4,1.1,1.6,1.6,2.7,1.2c1.1-0.4,1.6-1.6,1.2-2.7c-0.7-1.9-0.8-3-0.5-3.6
		C-480.6,1014.3-478.6,1013.6-474.6,1013.7z M-687.9,1007.7c0,0.7,0.1,1.5,0.1,2.2c0,0.1,0,0.1,0,0.2c0,1.1,0.1,2.1,0.1,2.8
		c0,0,0,0,0,0c-0.1-0.9-0.2-1.7-0.3-2.6l0-0.1c-0.1-1-0.2-1.8-0.3-2.5C-688.1,1007.7-688,1007.7-687.9,1007.7z M-665.2,1011
		c0,0.1,0,0.1,0,0.1c-0.2,1.1-0.4,1.9-0.6,2.5c0,0,0,0-0.1,0c0,0-0.1,0-0.1,0l0.6-4.5l0.5,0.1
		C-664.9,1009.8-665.1,1010.4-665.2,1011z M-640.9,1012.6l-0.4,0.2c-0.2,0.1-0.4,0.3-0.5,0.5c0-0.4,0.1-0.9,0.2-1.4
		c0.1-0.5,0.2-1.1,0.3-1.7c0.1-0.3,0.1-0.6,0.2-0.9c0.1,0,0.2,0,0.3,0L-640.9,1012.6z M-613.4,1005.2l-1.2,3.7c-0.1,0-0.3,0-0.4-0.1
		c0.1-0.4,0.3-0.9,0.4-1.5c0-0.1,0-0.1,0.1-0.2c0.2-0.6,0.4-1.3,0.6-2C-613.7,1005.2-613.5,1005.2-613.4,1005.2z M-572.6,1006.3
		c0.1,0,0.1,0,0.2,0c-0.4,1.1-1.3,2.9-1.5,3.8c-0.2,0.8-0.5,1.3-0.7,1.7c-0.2,0-0.4,0.1-0.5,0.2c0,0,0-0.1-0.1-0.1
		c0-0.1,0.1-0.3,0.1-0.4c0.4-0.8,1.5-3.5,2.1-5.2C-572.8,1006.2-572.7,1006.3-572.6,1006.3z M-550.4,1012
		C-550.4,1012-550.4,1012-550.4,1012L-550.4,1012C-550.4,1012-550.4,1012-550.4,1012z M-549.7,1010.8l0.3-4c0.1,0,0.3-0.1,0.4-0.1
		C-548.8,1008.1-549.1,1009.4-549.7,1010.8z M-522.6,1010.9c0,0.1-0.1,0.1-0.1,0.2c-0.1,0-0.3,0.1-0.4,0.2c-1,0.1-2.2,0.1-3.6-0.2
		c-0.1-0.1-0.1-0.2-0.2-0.3c-0.6-1-0.1-2.3,1.1-3.7c0.3-0.4,0.7-0.7,1-1c0.4,0,0.8,0.1,1.1,0.1c0.5,0,1.2-0.1,1.8-0.2
		C-521.6,1008.3-521.9,1009.9-522.6,1010.9z M-499.3,1008.6c0,0.4-0.1,0.8-0.1,1.2c0-0.5-0.1-1-0.1-1.6c0-0.6,0-1.2,0-1.8
		c0.1,0,0.2,0.1,0.3,0.1C-499.2,1007.1-499.3,1007.9-499.3,1008.6z M-473.2,1005.5c0.1,0,0.2,0,0.3,0l-0.7,2.4l0.1-2.4
		C-473.5,1005.6-473.4,1005.6-473.2,1005.5z M-458.8,1004.2c1,0.4,2.2,0.8,3.4,1c-0.1,0.4-0.3,0.8-0.4,1.1c-0.1,0.2-0.1,0.2-0.1,0.4
		c-0.4,1.1-0.7,2-1,2.7c-0.1,0.4-0.2,0.8-0.3,1.1c0,0.2-0.1,0.4-0.1,0.5c0,0.1,0,0.1,0,0.2c-0.5,1.9-1.6,3.5-3,4.8
		c-1.1,1-2.4,1.6-2.8,1.6c-0.2,0-0.4,0-0.5,0.1c1.3-4.1-0.8-6.8-6.3-7.8l1.2-4.1C-464.8,1005.9-461.2,1005.3-458.8,1004.2z"/>
	<path class="st0" d="M-671.6,938.4c2.4,1.7,3.5,2.7,4.7,4.2c0.8,1,2.4,1,3.2-0.1c0.1-0.2,1.4-1.9,1.8-2.3c1.8-2.2,3.5-3.4,5.7-3.7
		c1.1-0.2,1.9-1.3,1.7-2.4c-0.2-1.1-1.3-1.9-2.4-1.7c-3.4,0.6-5.8,2.3-8.2,5.2c-0.1,0.1-0.2,0.3-0.4,0.5c-1-0.9-2.1-1.8-3.7-3
		c-0.9-0.7-2.2-0.5-2.9,0.5C-672.7,936.4-672.5,937.7-671.6,938.4z"/>
	<path class="st0" d="M-492,917c0.3,0.2,0.7,0.5,1.1,0.8c0.6,0.5,1.2,1,1.8,1.5c0.2,0.2,0.4,0.3,0.5,0.5c0.1,0.1,0.2,0.1,0.2,0.2
		c0.9,0.9,2.3,0.8,3.1-0.1c0.1-0.1,0.3-0.3,0.6-0.6c0.5-0.5,1.1-1,1.7-1.5c1.6-1.2,3.1-1.9,4.5-2c1.1-0.1,2-1.1,1.9-2.2
		c-0.1-1.1-1.1-2-2.2-1.9c-2.3,0.2-4.6,1.2-6.7,2.8c-0.5,0.4-1,0.8-1.5,1.2c-0.4-0.4-0.9-0.7-1.3-1.1c-0.4-0.3-0.9-0.7-1.3-1
		c-0.9-0.7-2.2-0.4-2.9,0.5S-492.9,916.3-492,917z"/>
	<path class="st0" d="M-480.8,930.7c0-0.1-0.1-0.1-0.1-0.2c-0.1-0.1-0.1-0.1-0.1-0.1c-0.9-1-1.4-1.5-1.8-1.8
		c-0.9-0.7-2.2-0.5-2.9,0.4s-0.5,2.2,0.4,2.9c0.1,0.1,0.6,0.6,1.3,1.3c0.1,0.1,0.1,0.1,0.1,0.1c0.3,0.4,0.7,0.8,1.1,1.2
		c0.2,0.2,0.4,0.4,0.5,0.5c0.8,0.9,2.3,1,3.1,0c0,0,0.1-0.1,0.2-0.2c0.2-0.2,0.4-0.4,0.6-0.6c0.7-0.7,1.4-1.3,2.1-1.9
		c1.1-0.9,2.1-1.6,3.1-2c0.7-0.3,1.2-0.5,1.7-0.5c1.1-0.1,2-1,2-2.2c-0.1-1.1-1-2-2.2-2c-1.1,0-2.1,0.4-3.3,0.9
		c-1.3,0.6-2.6,1.5-3.9,2.5C-479.6,929.6-480.2,930.1-480.8,930.7z"/>
	<path class="st0" d="M-542,902.7c2.5,1.4,5.6,1.9,9,1.9l0,0.3c-0.1,0.1-0.2,0.2-0.3,0.4c-0.3,0.4-0.7,0.9-1,1.4
		c-1.1,1.4-2.1,2.8-3.1,4.1c0,0,0,0-0.1,0.1c-2.3,3-3.8,5-4.4,5.6c-0.9,1.1-0.5,2.7,0.8,3.3c4.2,1.7,12.8,2.2,19.4,0.6
		c1.4-0.3,2-1.9,1.3-3.1c-0.7-1.1-1.5-2.4-2.4-3.7c-0.2-0.4-0.5-0.7-0.7-1.1c-1.2-1.8-2.5-3.6-3.7-5.4c-0.4-0.6-0.9-1.2-1.2-1.7
		c-0.2-0.3-0.3-0.5-0.4-0.6l0-0.6c0,0,0.1,0,0.1,0c3.9-0.6,7.7-1.9,8.5-3.2c0.7-0.9,0.4-2.2-0.5-2.9c-0.8-0.6-1.9-0.5-2.6,0.2
		c0,0-0.1,0.1-0.2,0.1c-0.3,0.2-0.8,0.3-1.3,0.5c-1.3,0.5-2.9,0.9-4.6,1.1c-0.2,0-0.4,0-0.6,0.1c0.4-0.4,0.7-0.9,0.6-1.6l-0.1-1.9
		c0-1.1-1-2-2.2-2s-2,1-2,2.1l0.1,1.9c0,0.7,0.4,1.3,1,1.7c-2.9,0.1-5.5-0.3-7.5-1.4c-1-0.5-2.3-0.2-2.8,0.8
		C-543.3,900.9-543,902.1-542,902.7z M-523.3,898.3c-0.1,0.1-0.2,0.2-0.2,0.3C-523.5,898.5-523.4,898.4-523.3,898.3z M-526.9,914.8
		c0.2,0.4,0.5,0.7,0.7,1c0.2,0.4,0.5,0.7,0.7,1c-3.9,0.5-8.1,0.4-11.2-0.2c0.7-0.9,1.5-2,2.5-3.3c0,0,0,0,0.1-0.1
		c1-1.3,2.1-2.7,3.1-4.2c0,0,0.1-0.1,0.1-0.1c0,0,0-0.1-0.1-0.1c0,0,0.1,0,0.1,0c0,0,0,0.1-0.1,0.1c0.1,0.2,0.2,0.3,0.3,0.5
		C-529.3,911.3-528.1,913.1-526.9,914.8z"/>
</g>
<g>
	<path class="st1" d="M-457,1463.8c-0.1-1.1-1.2-1.9-2.3-1.8c-1.1,0.1-1.9,1.2-1.8,2.3c0.5,4-0.6,7.1-3.5,8.9l-2.9-7l2.6-1.3
		c1-0.5,1.4-1.8,0.9-2.8c-0.5-1-1.8-1.4-2.8-0.9l-2.3,1.2l-0.4-0.9c0.5-0.8,0.9-1.7,0.9-2.7c0-2.6-2.1-4.6-4.6-4.6s-4.6,2.1-4.6,4.6
		s2.1,4.6,4.6,4.6c0,0,0,0,0.1,0l0.3,0.8l-2.7,1.4c-1,0.5-1.4,1.8-0.9,2.8c0.5,1,1.8,1.4,2.8,0.9l2.4-1.2l2.7,6.6
		c-3.5,0.4-7.2-1.4-9.3-4.4c-0.7-0.9-1.9-1.2-2.9-0.5s-1.2,1.9-0.5,2.9c3.1,4.5,8.9,7.1,14.3,6l0.3,0.7c0.4,1.1,1.7,1.6,2.7,1.1
		c1.1-0.4,1.6-1.6,1.1-2.7l-0.3-0.7C-458.3,1474.4-456.3,1469.6-457,1463.8z M-473.3,1458.3c0.3,0,0.5,0.2,0.5,0.5s-0.2,0.5-0.5,0.5
		s-0.5-0.2-0.5-0.5S-473.6,1458.3-473.3,1458.3z"/>
	<path class="st1" d="M-659.8,1460.1c-0.7-0.9-2-1.1-2.9-0.5l-0.5,0.3c-1.9-1.7-4.4-2.7-7.1-2.7c-1.8,0-3.5,0.5-5,1.3l-0.6-0.7
		c-0.7-0.9-2.1-1-2.9-0.2c-0.9,0.7-1,2-0.2,2.9l0.6,0.6c-1.5,1.8-2.4,4.2-2.4,6.7c0,1.9,0.5,3.6,1.3,5.2l-0.5,0.4
		c-0.8,0.8-0.9,2.1-0.1,2.9s2.1,0.9,2.9,0.1l0.3-0.3c1.8,1.4,4.1,2.3,6.6,2.3c2,0,3.9-0.6,5.6-1.6l0.1,0.1c0.7,0.9,2.1,1,2.9,0.2
		s1-2.1,0.2-2.9l-0.2-0.2c1.3-1.8,2-3.9,2-6.2c0-1.6-0.4-3.2-1.1-4.6l0.4-0.3C-659.3,1462.3-659.1,1461-659.8,1460.1z
		 M-670.2,1461.4c1.3,0,2.6,0.4,3.6,1.1l-1.8,1.3c-0.6-0.3-1.2-0.4-1.8-0.4c-0.3,0-0.6,0-0.8,0.1l-1.4-1.7
		C-671.8,1461.5-671,1461.4-670.2,1461.4z M-670.2,1467.5c0.2,0,0.4,0.2,0.4,0.4c0,0.2-0.2,0.4-0.4,0.4s-0.4-0.2-0.4-0.4
		C-670.6,1467.7-670.4,1467.5-670.2,1467.5z M-676.7,1467.9c0-1.3,0.4-2.5,1-3.5l1.4,1.6c-0.3,0.6-0.4,1.2-0.4,1.9
		c0,0.2,0,0.4,0.1,0.6l-1.7,1.5C-676.6,1469.4-676.7,1468.6-676.7,1467.9z M-670.2,1474.3c-1.3,0-2.5-0.4-3.5-1l1.5-1.4
		c0.6,0.3,1.3,0.5,2,0.5c0.5,0,1-0.1,1.4-0.2l1.4,1.6C-668.3,1474.1-669.2,1474.3-670.2,1474.3z M-663.7,1467.9
		c0,1.1-0.3,2.1-0.7,2.9l-1.5-1.7c0.1-0.4,0.2-0.8,0.2-1.2c0-0.3,0-0.6-0.1-0.8l1.7-1.3C-663.9,1466.4-663.7,1467.1-663.7,1467.9z"
		/>
	<path class="st1" d="M-610.5,1457.5l-3.8,2.8c-0.9,0.7-1.1,2-0.5,2.9c0.7,0.9,2,1.1,2.9,0.5l0.5-0.4v13.8c0,1.1,0.9,2.1,2.1,2.1
		s2.1-0.9,2.1-2.1v-17.9C-607.2,1457.5-609.2,1456.5-610.5,1457.5z"/>
	<path class="st1" d="M-644.6,1457.5l-3.8,2.8c-0.9,0.7-1.1,2-0.5,2.9c0.7,0.9,2,1.1,2.9,0.5l0.5-0.4v13.8c0,1.1,0.9,2.1,2.1,2.1
		c1.1,0,2.1-0.9,2.1-2.1v-17.9C-641.3,1457.5-643.2,1456.5-644.6,1457.5z"/>
	<path class="st1" d="M-620,1466.2h-1.3c-1.1,0-2.1,0.9-2.1,2.1c0,1.1,0.9,2.1,2.1,2.1h1.3c1.1,0,2.1-0.9,2.1-2.1
		C-617.9,1467.1-618.8,1466.2-620,1466.2z"/>
	<path class="st1" d="M-592.9,1457.5h-9.7c-1.1,0-2.1,0.9-2.1,2.1s0.9,2.1,2.1,2.1h5.2c-0.4,0.5-0.8,1.1-1.2,1.7
		c-0.5,0.7-0.9,1.4-1.3,2.1l-0.5-0.2c-1-0.5-2.3,0-2.8,1c-0.5,1,0,2.3,1,2.8l0.6,0.3c-0.9,2.5-1.4,5.1-1.2,7.6
		c0.1,1.1,1.1,2,2.2,1.9s2-1.1,1.9-2.2c-0.1-1.8,0.1-3.6,0.8-5.5l0.2,0.1c1,0.5,2.3,0,2.8-1c0.5-1,0-2.3-1-2.8l-0.2-0.1
		c0.3-0.5,0.6-1.1,1-1.6c0.8-1.2,1.7-2.4,2.5-3.4c0.3-0.3,0.6-0.7,0.8-0.9c0.1-0.2,0.2-0.3,0.3-0.3
		C-590.1,1459.7-591,1457.5-592.9,1457.5z"/>
	<path class="st1" d="M-575.7,1473.4c-0.9-0.7-2.2-0.5-2.9,0.4c0,0,0,0-0.1,0c-0.2,0.1-0.5,0.2-0.9,0.2c-0.5,0-1,0-1.2-0.1
		c-0.1-0.3-0.2-0.8-0.3-1.4c-0.1-1.2-0.2-2.8-0.2-4.4c0-1.6,0.1-3.3,0.3-4.5c0.1-0.6,0.2-1.2,0.3-1.5c0-0.1,0.1-0.2,0.1-0.3
		c0.1,0,0.5-0.1,0.9-0.1c0.3,0,0.6,0.1,0.8,0.2c0,0,0,0,0,0c0.6,0.7,1.7,0.9,2.6,0.4c1-0.6,1.3-1.8,0.8-2.8
		c-1.4-2.4-6.5-2.8-8.5-0.2c-1,1.3-1.4,4.6-1.4,8.8c0,4.7,0.3,7.8,1.7,8.9c2.3,1.9,6.7,1.5,8.4-0.6
		C-574.6,1475.4-574.8,1474.1-575.7,1473.4z"/>
	<path class="st1" d="M-566,1473.9l-3.1,0l0.1-4.9l1.8,0c1.1,0,2.1-0.9,2.1-2c0-1.1-0.9-2.1-2-2.1l-1.8,0l0.1-3.4l2,0
		c1.1,0,2.1-0.9,2.1-2c0-1.1-0.9-2.1-2-2.1l-4.1-0.1c-1.1,0-2.1,0.9-2.1,2l-0.4,16.6c0,1.2,0.9,2.1,2.1,2.1l5.2,0
		c1.1,0,2.1-0.9,2.1-2.1S-564.8,1473.9-566,1473.9z"/>
	<path class="st1" d="M-553.7,1457.6c-1.1,0-2.1,0.9-2.1,2.1l0,5.5l-2.8-0.1l0-5.7c0-1.1-0.9-2.1-2.1-2.1s-2.1,0.9-2.1,2.1
		l-0.1,16.6c0,1.1,0.9,2.1,2.1,2.1s2.1-0.9,2.1-2.1l0-6.7l2.8,0.1l-0.1,6.9c0,1.1,0.9,2.1,2.1,2.1c1.1,0,2.1-0.9,2.1-2.1l0.2-16.5
		C-551.6,1458.5-552.6,1457.6-553.7,1457.6z"/>
	<path class="st1" d="M-540,1457.6l-7.9,0c-1.1,0-2.1,0.9-2.1,2.1s0.9,2.1,2.1,2.1l2.4,0l-0.3,14.3c0,1.1,0.9,2.1,2,2.1
		c1.1,0,2.1-0.9,2.1-2l0.3-14.4l1.4,0c1.1,0,2.1-0.9,2.1-2.1C-537.9,1458.5-538.9,1457.6-540,1457.6z"/>
	<path class="st1" d="M-527.1,1459c-0.2-1-1-1.7-2-1.7c-0.2,0-0.3,0-0.4,0c-0.8-0.1-1.6-0.1-2.4-0.1c-2.1,0.1-3.6,0.7-4.4,2.3
		c-1,2.3-1.1,6.4,0.4,8.4c-1.4,1.6-1.9,4-1.9,8.3c0,1.1,0.9,2.1,2.1,2.1c1.1,0,2.1-0.9,2.1-2.1c0-2.9,0.3-4.6,0.8-5.4
		c0.3-0.5,0.6-0.7,1.6-1.1l0,6.5c0,1.1,0.9,2.1,2.1,2.1c1.1,0,2.1-0.9,2.1-2.1l0.1-16.4C-527.1,1459.5-527.1,1459.3-527.1,1459z
		 M-532.7,1461.5c0.2-0.1,0.5-0.1,0.9-0.1c0.2,0,0.3,0,0.5,0l0,3.8c-0.3,0-0.6,0.1-0.9,0c-0.2,0-0.4,0-0.5,0
		c-0.1-0.3-0.2-0.8-0.2-1.3C-532.9,1463-532.8,1462.1-532.7,1461.5z"/>
	<path class="st1" d="M-490.6,1459c-0.2-1-1-1.7-2-1.7c-0.2,0-0.3,0-0.4,0c-0.8-0.1-1.6-0.1-2.4-0.1c-2.1,0.1-3.6,0.7-4.4,2.3
		c-1,2.3-1.1,6.4,0.4,8.4c-1.4,1.6-1.9,4-1.9,8.3c0,1.1,0.9,2.1,2.1,2.1c1.1,0,2.1-0.9,2.1-2.1c0-2.9,0.3-4.6,0.8-5.4
		c0.3-0.5,0.6-0.7,1.6-1.1l0,6.5c0,1.1,0.9,2.1,2.1,2.1s2.1-0.9,2.1-2.1l0.1-16.4C-490.5,1459.5-490.5,1459.3-490.6,1459z
		 M-496.1,1461.5c0.2-0.1,0.5-0.1,0.9-0.1c0.2,0,0.3,0,0.5,0l0,3.8c-0.3,0-0.6,0.1-0.9,0c-0.2,0-0.4,0-0.5,0
		c-0.1-0.3-0.2-0.8-0.2-1.3C-496.4,1463-496.3,1462.1-496.1,1461.5z"/>
	<path class="st1" d="M-516.9,1465c-0.9-0.5-1.9-0.7-3-0.8c-0.3,0-0.6,0-0.8,0v-2.9h3.2c1.1,0,2.1-0.9,2.1-2.1s-0.9-2.1-2.1-2.1
		h-5.3c-1.1,0-2.1,0.9-2.1,2.1v7.4v0.1v9.2c0,0.9,0.5,1.6,1.3,1.9c0.3,0.1,0.8,0.3,1.3,0.4c0.7,0.2,1.3,0.3,2,0.4
		c1.8,0.2,3.3-0.1,4.3-1.4C-513.9,1474.9-514.1,1466.7-516.9,1465z M-519.1,1474.7c-0.2,0-0.4,0-0.7,0c-0.3,0-0.6-0.1-0.9-0.2v-6
		c0.3,0,0.6-0.1,0.8-0.1c0.3,0,0.6,0,0.7,0.1c0.1,0.1,0.1,0.3,0.2,0.5c0.2,0.6,0.3,1.4,0.3,2.3
		C-518.7,1472.8-518.9,1474.2-519.1,1474.7z"/>
	<path class="st1" d="M-508,1456.7c-0.6,0-1.3,0.1-1.9,0.2c-0.5,0.1-0.9,0.2-1.1,0.3c-0.9,0.3-1.5,1.1-1.5,2v16.8
		c0,1.1,0.9,2.1,2.1,2.1c1.1,0,2.1-0.9,2.1-2.1v-5c0.9,0.1,1.9,0,2.9-0.5c0.1-0.1,0.3-0.1,0.4-0.2c2.8-1.5,3.1-9.1,1.5-11.9
		C-504.5,1457-506,1456.6-508,1456.7z M-506.9,1464.2c0,0.9-0.1,1.7-0.3,2.2c0,0.2-0.1,0.3-0.1,0.4c-0.3,0.1-0.7,0.1-1.1,0v-5.9
		c0.2,0,0.4-0.1,0.6-0.1c0.3,0,0.5,0,0.7,0C-507,1461.5-506.9,1462.9-506.9,1464.2z"/>
	<path class="st1" d="M-633.3,1464.7c0-0.6,0-0.8,0-1.2c0-1.7,0.1-1.8,0.7-1.8c1,0,0.8-0.1,1,0.4c0.6,1,1.8,1.4,2.8,0.8
		c1-0.6,1.4-1.8,0.8-2.8c-1-1.8-2.2-2.5-4.7-2.5c-3.3,0-4.9,2.2-4.9,5.9c0,0.6,0,0.8-0.2,4c0,0.7-0.1,1.3-0.1,1.9
		c-0.3,5.3-0.2,7.2,1.2,8.4c2,1.7,6.6,1.4,8.3-0.5c1.8-2,2.2-9.4,0-11.4C-629.5,1464.7-631.5,1464.5-633.3,1464.7z M-630.9,1471.4
		c0,0.8-0.1,1.6-0.3,2.2c-0.1,0.3-0.1,0.5-0.2,0.7c0,0,0,0,0,0c-0.3,0.2-1.5,0.3-2.2,0.2c0-0.3-0.1-0.6-0.1-1c0-1,0-2.4,0.1-4.1
		c0-0.2,0-0.4,0-0.6c0.9-0.2,2-0.2,2.4-0.1c0,0.1,0.1,0.3,0.1,0.5C-630.9,1469.9-630.9,1470.6-630.9,1471.4z"/>
</g>
</svg>
